<svg id="eU19p4HavSX1" xmlns="http://www.w3.org/2000/svg" xmlns:xlink="http://www.w3.org/1999/xlink" viewBox="0 0 375 374.999991" shape-rendering="geometricPrecision" text-rendering="geometricPrecision"><g id="eU19p4HavSX2" transform="matrix(.5 0 0 0.5 35.710938 125.668946)" clip-path="url(#eU19p4HavSX9)"><g><g clip-path="url(#eU19p4HavSX7)"><g><path d="M49.867188,229.78125h43.109374v43.113281h-43.109374Zm0,0" fill="#52a8f2"/></g><clipPath id="eU19p4HavSX7"><path d="M63.367188,229.78125h16.109374c7.457032,0,13.5,6.046875,13.5,13.5v16.113281c0,7.457031-6.042968,13.5-13.5,13.5h-16.109374c-7.457032,0-13.5-6.042969-13.5-13.5v-16.113281c0-7.453125,6.042968-13.5,13.5-13.5"/></clipPath></g></g><clipPath id="eU19p4HavSX9"><path d="M49.867188,229.78125h43.109374v43.113281h-43.109374Zm0,0"/></clipPath></g><g id="eU19p4HavSX11" transform="matrix(.5 0 0 0.5 58.916992 125.668946)" clip-path="url(#eU19p4HavSX18)"><g><g clip-path="url(#eU19p4HavSX16)"><g><path d="M96.277344,229.78125h43.113281v43.113281h-43.113281Zm0,0" fill="#f2e530"/></g><clipPath id="eU19p4HavSX16"><path d="M109.777344,229.78125h16.113281c7.457031,0,13.5,6.046875,13.5,13.5v16.113281c0,7.457031-6.042969,13.5-13.5,13.5h-16.113281c-7.457032,0-13.5-6.042969-13.5-13.5v-16.113281c0-7.453125,6.042968-13.5,13.5-13.5"/></clipPath></g></g><clipPath id="eU19p4HavSX18"><path d="M96.277344,229.78125h43.113281v43.113281h-43.113281Zm0,0"/></clipPath></g><g id="eU19p4HavSX20" transform="matrix(.5 0 0 0.5 82.198242 125.668946)" clip-path="url(#eU19p4HavSX27)"><g><g clip-path="url(#eU19p4HavSX25)"><g><path d="M142.839844,229.78125h43.113281v43.113281h-43.113281Zm0,0" fill="#f2a341"/></g><clipPath id="eU19p4HavSX25"><path d="M156.339844,229.78125h16.113281c7.453125,0,13.5,6.046875,13.5,13.5v16.113281c0,7.457031-6.046875,13.5-13.5,13.5h-16.113281c-7.457032,0-13.5-6.042969-13.5-13.5v-16.113281c0-7.453125,6.042968-13.5,13.5-13.5"/></clipPath></g></g><clipPath id="eU19p4HavSX27"><path d="M142.839844,229.78125h43.113281v43.113281h-43.113281Zm0,0"/></clipPath></g><g id="eU19p4HavSX29" transform="matrix(.5 0 0 0.5 105.479492 125.668946)" clip-path="url(#eU19p4HavSX36)"><g><g clip-path="url(#eU19p4HavSX34)"><g><path d="M189.402344,229.78125h43.113281v43.113281h-43.113281Zm0,0" fill="#f27141"/></g><clipPath id="eU19p4HavSX34"><path d="M202.902344,229.78125h16.113281c7.453125,0,13.5,6.046875,13.5,13.5v16.113281c0,7.457031-6.046875,13.5-13.5,13.5h-16.113281c-7.457032,0-13.5-6.042969-13.5-13.5v-16.113281c0-7.453125,6.042968-13.5,13.5-13.5"/></clipPath></g></g><clipPath id="eU19p4HavSX36"><path d="M189.402344,229.78125h43.113281v43.113281h-43.113281Zm0,0"/></clipPath></g><g id="eU19p4HavSX38" transform="matrix(.5 0 0 0.5 128.758789 125.668946)" clip-path="url(#eU19p4HavSX45)"><g><g clip-path="url(#eU19p4HavSX43)"><g><path d="M235.960938,229.78125h43.113281v43.113281h-43.113281Zm0,0" fill="#bf1304"/></g><clipPath id="eU19p4HavSX43"><path d="M249.460938,229.78125h16.113281c7.457031,0,13.5,6.046875,13.5,13.5v16.113281c0,7.457031-6.042969,13.5-13.5,13.5h-16.113281c-7.453126,0-13.5-6.042969-13.5-13.5v-16.113281c0-7.453125,6.046874-13.5,13.5-13.5"/></clipPath></g></g><clipPath id="eU19p4HavSX45"><path d="M235.960938,229.78125h43.113281v43.113281h-43.113281Zm0,0"/></clipPath></g><g id="eU19p4HavSX47" transform="matrix(.5 0 0 0.5 151.789063 125.668946)" clip-path="url(#eU19p4HavSX54)"><g><g clip-path="url(#eU19p4HavSX52)"><g><path d="M282.023438,229.78125h43.109374v43.113281h-43.109374Zm0,0" fill="#20a459"/></g><clipPath id="eU19p4HavSX52"><path d="M295.523438,229.78125h16.109374c7.457032,0,13.5,6.046875,13.5,13.5v16.113281c0,7.457031-6.042968,13.5-13.5,13.5h-16.109374c-7.457032,0-13.5-6.042969-13.5-13.5v-16.113281c0-7.453125,6.042968-13.5,13.5-13.5"/></clipPath></g></g><clipPath id="eU19p4HavSX54"><path d="M282.023438,229.78125h43.109374v43.113281h-43.109374Zm0,0"/></clipPath></g><path d="M262.617188,118.953125h11.078124v11.761719h-11.078124Zm0,0" fill="#fcd21d"/><g clip-path="url(#eU19p4HavSX60)"><g><path d="M320.164062,204.144531h-104.015624c-2.550782,0-4.617188,2.074219-4.617188,4.640625v9.902344c0,2.5625,2.066406,4.640625,4.617188,4.640625h104.015624c2.550782,0,4.617188-2.078125,4.617188-4.640625v-9.902344c0-2.566406-2.066406-4.640625-4.617188-4.640625Zm0,0" fill="#fcd21d"/></g><clipPath id="eU19p4HavSX60"><path d="M211.53125,204h113.25v19.332031h-113.25Zm0,0"/></clipPath></g><path d="M268.15625,204.144531h36.003906c5.269532,0,9.539063-4.296875,9.539063-9.59375s-4.269531-9.589843-9.539063-9.589843h-72.007812c-5.269532,0-9.539063,4.292968-9.539063,9.589843s4.269531,9.59375,9.539063,9.59375Zm0,0" fill="#ff5c64"/><path d="M307.277344,185.484375c.175781.726563.269531,1.480469.269531,2.257813c0,5.296874-4.269531,9.589843-9.539063,9.589843h-72.011718c-1.089844,0-2.140625-.183593-3.117188-.523437c1.011719,4.207031,4.78125,7.332031,9.273438,7.332031h72.007812c5.269532,0,9.539063-4.292969,9.539063-9.589844c0-4.203125-2.683594-7.765625-6.421875-9.066406Zm0,0" transform="translate(.000001 0)" fill="#ff2444"/><path d="M238.304688,165.773438c-5.269532,0-9.539063,4.296874-9.539063,9.59375s4.273437,9.589843,9.539063,9.589843h59.703124c5.269532,0,9.539063-4.292969,9.539063-9.589843c0-5.300782-4.273437-9.59375-9.539063-9.59375" fill="#8ef26d"/><path d="M301.121094,166.300781c.175781.722657.269531,1.480469.269531,2.257813c0,5.296875-4.273437,9.589844-9.539063,9.589844h-59.699218c-1.09375,0-2.140625-.1875-3.117188-.523438c1.011719,4.207031,4.777344,7.332031,9.273438,7.332031h59.699218c5.269532,0,9.539063-4.292969,9.539063-9.589843c0-4.199219-2.6875-7.765626-6.425781-9.066407Zm0,0" fill="#72dd4b"/><path d="M268.15625,165.773438h23.695312c5.269532,0,9.539063-4.292969,9.539063-9.589844s-4.273437-9.59375-9.539063-9.59375h-47.390624c-5.269532,0-9.539063,4.296875-9.539063,9.59375s4.269531,9.589844,9.539063,9.589844Zm0,0" fill="#ff94e6"/><path d="M294.96875,147.117188c.175781.722656.269531,1.480468.269531,2.257812c0,5.296875-4.273437,9.59375-9.539062,9.59375h-47.390625c-1.09375,0-2.140625-.1875-3.117188-.527344c1.011719,4.207032,4.777344,7.332032,9.273438,7.332032h47.390625c5.265625,0,9.539062-4.292969,9.539062-9.589844-.003906-4.199219-2.6875-7.765625-6.425781-9.066406Zm0,0" transform="translate(0 0.000001)" fill="#ff71d0"/><path d="M268.15625,146.589844h17.539062c5.269532,0,9.542969-4.292969,9.542969-9.589844s-4.273437-9.59375-9.542969-9.59375h-35.078124c-5.269532,0-9.542969,4.296875-9.542969,9.59375s4.273437,9.589844,9.542969,9.589844Zm0,0" fill="#ff5c64"/><path d="M288.8125,127.933594c.175781.726562.269531,1.480468.269531,2.257812c0,5.296875-4.273437,9.589844-9.539062,9.589844h-35.082031c-1.089844,0-2.140626-.1875-3.117188-.523438c1.011719,4.207032,4.777344,7.332032,9.273438,7.332032h35.078124c5.269532,0,9.542969-4.292969,9.542969-9.59375c0-4.195313-2.6875-7.761719-6.425781-9.0625Zm0,0" fill="#ff2444"/><g clip-path="url(#eU19p4HavSX73)"><g><path d="M281.699219,107.195312c0,7.519532-6.0625,13.617188-13.542969,13.617188-7.476562,0-13.539062-6.097656-13.539062-13.617188s6.0625-13.613281,13.539062-13.613281s13.542969,6.09375,13.542969,13.613281Zm0,0" fill="#ff5c64"/></g><clipPath id="eU19p4HavSX73"><path d="M254,93.582031h28L282,121h-28Zm0,0"/></clipPath></g><path d="M274.042969,94.933594c.863281,1.789062,1.34375,3.796875,1.34375,5.917968c0,7.519532-6.0625,13.617188-13.539063,13.617188-2.109375,0-4.105468-.484375-5.886718-1.351562c2.191406,4.554687,6.828124,7.695312,12.195312,7.695312c7.476562,0,13.539062-6.097656,13.539062-13.617188.003907-5.398437-3.121093-10.058593-7.652343-12.261718Zm0,0" fill="#ff2444"/><path d="M189.023438,80.25h-19.03125c-.992188,0-1.796876,1.039062-1.796876,2.320312v25.984376c0,.769531.484376,1.390624,1.078126,1.390624h39.503906c.597656,0,1.078125-.621093,1.078125-1.390624v-25.984376c0-1.28125-.804688-2.320312-1.792969-2.320312Zm0,0" fill="#ff5c64"/><path d="M172.503906,109.945312v-19.023437c0-2.5625,1.609375-4.640625,3.59375-4.640625h33.753906v-3.710938c0-1.28125-.800781-2.320312-1.792968-2.320312h-38.066406c-.992188,0-1.796876,1.039062-1.796876,2.320312v25.984376c0,.769531.484376,1.390624,1.078126,1.390624Zm0,0" transform="translate(.000001 0)" fill="#ff2444"/><path d="M221.84375,134.421875c12.074219,0,21.863281-9.75,21.863281-21.777344v-22.867187c0-1.503906-1.21875-2.722656-2.730469-2.722656h-9.292968c-1.507813,0-2.730469,1.21875-2.730469,2.722656v24.5c0,3.007812-2.449219,5.445312-5.46875,5.445312h-5.738281v14.699219Zm0,0" transform="translate(.000001 0)" fill="#ffe266"/><path d="M217.746094,119.722656v14.699219h4.097656c.644531,0,1.28125-.035156,1.914062-.089844v-4.65625c0-2.304687,1.457032-4.359375,3.636719-5.128906c4.25-1.492187,7.296875-5.527344,7.296875-10.269531v-27.222656h-3.007812c-1.511719,0-2.730469,1.21875-2.730469,2.722656v24.5c0,3.007812-2.449219,5.445312-5.46875,5.445312Zm0,0" fill="#fcd21d"/><g clip-path="url(#eU19p4HavSX83)"><g><path d="M236.328125,89.097656c-5.347656,0-9.703125-4.335937-9.703125-9.667968v-5.988282c0-1.125.917969-2.039062,2.050781-2.039062s2.050781.910156,2.050781,2.039062v5.992188c0,3.074218,2.511719,5.582031,5.601563,5.582031s5.605469-2.503906,5.605469-5.582031v-5.992188c0-1.125.917968-2.039062,2.046875-2.039062c1.132812,0,2.050781.910156,2.050781,2.039062v5.992188c0,5.328125-4.351562,9.664062-9.703125,9.664062Zm0,0" fill="#2dd3f9"/></g><clipPath id="eU19p4HavSX83"><path d="M226,71.402344h20.035156v18.597656L226,90Zm0,0"/></clipPath></g><g clip-path="url(#eU19p4HavSX88)"><g><path d="M181.371094,209.835938l2.390625,4.28125c.226562.402343.34375.859374.34375,1.320312v4.742188c0,1.5-1.222657,2.722656-2.734375,2.722656h-14.210938c-1.507812,0-2.734375-1.21875-2.734375-2.722656v-4.742188c0-.460938.121094-.917969.34375-1.320312l2.390625-4.28125Zm0,0" fill="#ff5c64"/></g><clipPath id="eU19p4HavSX88"><path d="M164,209h21v13.902344h-21Zm0,0"/></clipPath></g><path d="M167.160156,168.457031h14.210938v10.886719h-14.210938Zm0,0" fill="#ff5c64"/><path d="M167.160156,168.457031v4.355469h7.378906c1.511719,0,2.734376,1.21875,2.734376,2.722656v3.808594h4.101562v-10.890625Zm0,0" transform="translate(0 0.000001)" fill="#ff2444"/><path d="M213.625,118.089844h-49.199219v-8.167969c0-1.503906,1.222657-2.722656,2.734375-2.722656h43.730469c1.507813,0,2.734375,1.21875,2.734375,2.722656Zm0,0" fill="#ffe266"/><path d="M207.0625,107.199219v3.539062c0,1.5-1.222656,2.722657-2.734375,2.722657h-39.902344v4.625h49.195313v-8.164063c0-1.503906-1.222656-2.722656-2.734375-2.722656Zm0,0" transform="translate(.000001 0)" fill="#fcd21d"/><path d="M164.425781,152.933594h49.195313v8.167968c0,1.503907-1.222656,2.722657-2.734375,2.722657h-43.726563c-1.507812,0-2.734375-1.21875-2.734375-2.722657Zm0,0" transform="translate(.000001 0)" fill="#ffe266"/><path d="M170.988281,163.824219v-3.539063c0-1.503906,1.222657-2.722656,2.730469-2.722656h39.90625v-4.628906h-49.199219v8.167968c0,1.503907,1.226563,2.722657,2.734375,2.722657Zm0,0" fill="#fcd21d"/><path d="M189.023438,152.933594h28.972656c1.507812,0,2.734375-1.21875,2.734375-2.722656v-30.488282c0-.902344-.734375-1.632812-1.640625-1.632812h-60.128906c-.90625,0-1.640626.730468-1.640626,1.632812v30.488282c0,1.503906,1.226563,2.722656,2.734376,2.722656Zm0,0" fill="#88e9ff"/><path d="M214.171875,118.089844v22.320312c0,3.007813-2.449219,5.445313-5.46875,5.445313h-51.382813v4.355469c0,1.503906,1.226563,2.722656,2.734376,2.722656h57.941406c1.507812,0,2.734375-1.21875,2.734375-2.722656v-30.488282c0-.902344-.734375-1.632812-1.640625-1.632812Zm0,0" fill="#2dd3f9"/><g clip-path="url(#eU19p4HavSX101)"><g><path d="M181.371094,209.835938h-5.464844l2.386719,4.28125c.226562.402343.347656.859374.347656,1.320312v.386719c0,1.5-1.226563,2.722656-2.734375,2.722656h-11.480469v1.632813c0,1.5,1.222657,2.722656,2.734375,2.722656h14.210938c1.511718,0,2.734375-1.21875,2.734375-2.722656v-4.742188c0-.460938-.117188-.917969-.34375-1.320312Zm0,0" fill="#ff2444"/></g><clipPath id="eU19p4HavSX101"><path d="M164,209h21v13.902344h-21Zm0,0"/></clipPath></g><path d="M167.160156,179.34375h14.210938v30.492188h-14.210938Zm0,0" fill="#ffe266"/><path d="M177.820312,179.34375v23.683594c0,1.503906-1.222656,2.722656-2.734374,2.722656h-7.925782v4.085938h14.210938v-30.488282h-3.550782Zm0,0" fill="#fcd21d"/><g clip-path="url(#eU19p4HavSX108)"><g><path d="M211.4375,209.835938l2.386719,4.28125c.226562.402343.34375.859374.34375,1.320312v4.742188c0,1.5-1.222657,2.722656-2.730469,2.722656h-14.210938c-1.511718,0-2.734374-1.21875-2.734374-2.722656v-4.742188c0-.460938.117187-.917969.34375-1.320312l2.386718-4.28125Zm0,0" fill="#ff5c64"/></g><clipPath id="eU19p4HavSX108"><path d="M194,209h21v13.902344h-21Zm0,0"/></clipPath></g><path d="M197.226562,168.457031h14.210938v10.886719h-14.210938Zm0,0" fill="#ff5c64"/><path d="M197.226562,168.457031v4.355469h7.378907c1.507812,0,2.734375,1.21875,2.734375,2.722656v3.808594h4.097656v-10.890625Zm0,0" transform="translate(0 0.000001)" fill="#ff2444"/><g clip-path="url(#eU19p4HavSX115)"><g><path d="M211.4375,209.835938h-5.464844l2.386719,4.28125c.226563.402343.34375.859374.34375,1.320312v.386719c0,1.5-1.222656,2.722656-2.734375,2.722656h-11.476562v1.632813c0,1.5,1.222656,2.722656,2.734374,2.722656h14.210938c1.507812,0,2.734375-1.21875,2.734375-2.722656v-4.742188c0-.460938-.121094-.917969-.347656-1.320312Zm0,0" fill="#ff2444"/></g><clipPath id="eU19p4HavSX115"><path d="M194,209h21v13.902344h-21Zm0,0"/></clipPath></g><path d="M197.226562,179.34375h14.210938v30.492188h-14.210938Zm0,0" fill="#ffe266"/><path d="M207.882812,179.34375v23.683594c0,1.503906-1.222656,2.722656-2.734374,2.722656h-7.921876v4.085938h14.210938v-30.488282h-3.554688Zm0,0" fill="#fcd21d"/><path d="M157.320312,134.421875v-14.699219h-5.738281c-3.019531,0-5.464843-2.4375-5.464843-5.445312v-24.5c0-1.503906-1.222657-2.722656-2.734376-2.722656h-9.292968c-1.507813,0-2.730469,1.21875-2.730469,2.722656v22.867187c0,12.027344,9.785156,21.777344,21.863281,21.777344Zm0,0" fill="#ffe266"/><path d="M151.582031,119.722656c-3.019531,0-5.464843-2.4375-5.464843-5.445312v-24.5c0-1.503906-1.222657-2.722656-2.734376-2.722656h-3.003906v27.222656c0,4.742187,3.042969,8.777344,7.292969,10.269531c2.183594.769531,3.636719,2.824219,3.636719,5.128906v4.65625c.632812.058594,1.269531.089844,1.914062.089844h4.101563v-14.699219Zm0,0" transform="translate(.000001 0)" fill="#fcd21d"/><g clip-path="url(#eU19p4HavSX124)"><g><path d="M138.738281,89.097656c-5.351562,0-9.703125-4.335937-9.703125-9.664062v-5.992188c0-1.128906.917969-2.039062,2.050782-2.039062c1.128906,0,2.046874.910156,2.046874,2.039062v5.992188c0,3.074218,2.515626,5.582031,5.605469,5.582031s5.601563-2.503906,5.601563-5.582031v-5.992188c0-1.125.917968-2.039062,2.050781-2.039062s2.050781.910156,2.050781,2.039062v5.992188c0,5.328125-4.355468,9.664062-9.703125,9.664062Zm0,0" fill="#2dd3f9"/></g><clipPath id="eU19p4HavSX124"><path d="M129.035156,71.402344h19.964844L149,90h-19.964844Zm0,0"/></clipPath></g><path d="M170.714844,173.082031h36.621094c2.566406,0,4.648437-2.070312,4.648437-4.628906c0-2.554687-2.082031-4.625-4.648437-4.625h-36.621094c-2.566406,0-4.648438,2.070313-4.648438,4.625c0,2.558594,2.082032,4.628906,4.648438,4.628906Zm0,0" fill="#ff5c64"/><path d="M207.335938,163.828125h-6.558594c2.566406,0,4.644531,2.074219,4.644531,4.628906s-2.078125,4.625-4.644531,4.625h6.558594c2.566406,0,4.648437-2.070312,4.648437-4.625c0-2.558593-2.082031-4.628906-4.648437-4.628906Zm0,0" fill="#ff2444"/><g clip-path="url(#eU19p4HavSX131)"><g><path d="M71.914062,221.203125c0,1.035156-.839843,1.875-1.875,1.875h-15.664062c-1.035156,0-1.875-.839844-1.875-1.875v-16.136719c0-1.035156.839844-1.875,1.875-1.875h15.664062c1.035157,0,1.875.839844,1.875,1.875l3.363282,8.066406Zm0,0" fill="#f4d844"/></g><clipPath id="eU19p4HavSX131" transform="translate(.000001 0.000001)"><path d="M52.484375,203L76,203v20.078125h-23.515625Zm0,0" transform="translate(.000001 0.000001)"/></clipPath></g><g clip-path="url(#eU19p4HavSX136)"><g><path d="M70.039062,203.191406h-5.394531c1.035157,0,1.875.839844,1.875,1.875v16.136719c0,1.035156-.839843,1.875-1.875,1.875h5.394531c1.035157,0,1.875-.839844,1.875-1.875v-16.136719c0-1.035156-.839843-1.875-1.875-1.875Zm0,0" fill="#edbd2d"/></g><clipPath id="eU19p4HavSX136" transform="translate(0 0.000001)"><path d="M64,203h8v20.078125h-8Zm0,0" transform="translate(0 0.000001)"/></clipPath></g><g clip-path="url(#eU19p4HavSX141)"><g><path d="M71.914062,203.253906c0,1.035156-.839843,1.875-1.875,1.875h-15.664062c-1.035156,0-1.875-.839844-1.875-1.875v-16.136718c0-1.039063.839844-1.875,1.875-1.875h15.664062c1.035157,0,1.875.835937,1.875,1.875l3.363282,8.066406Zm0,0" fill="#f4d844"/></g><clipPath id="eU19p4HavSX141" transform="translate(.000001 0)"><path d="M52.484375,185L76,185v21h-23.515625Zm0,0" transform="translate(.000001 0)"/></clipPath></g><path d="M70.039062,185.242188h-5.394531c1.035157,0,1.875.839843,1.875,1.875v16.136718c0,1.035156-.839843,1.875-1.875,1.875h5.394531c1.035157,0,1.875-.839844,1.875-1.875v-16.136718c0-1.035157-.839843-1.875-1.875-1.875Zm0,0" fill="#edbd2d"/><g clip-path="url(#eU19p4HavSX147)"><g><path d="M139.617188,165.140625h-65.527344c-.839844,0-1.28125-.996094-.71875-1.621094l32.039062-35.585937c.773438-.855469,2.117188-.855469,2.886719,0l32.042969,35.585937c.5625.625.117187,1.621094-.722656,1.621094Zm0,0" fill="#c4e14d"/></g><clipPath id="eU19p4HavSX147" transform="translate(0 0.000001)"><path d="M73,127.078125h68L141,166h-68Zm0,0" transform="translate(0 0.000001)"/></clipPath></g><path d="M134.03125,185.242188h-54.355469v-19.039063c0-1.007813.816407-1.820313,1.820313-1.820313h50.714844c1.007812,0,1.820312.8125,1.820312,1.820313Zm0,0" fill="#f4d844"/><path d="M132.15625,164.382812h-5.390625c1.035156,0,1.875.835938,1.875,1.871094v18.988282h5.390625v-18.988282c0-1.035156-.839844-1.871094-1.875-1.871094Zm0,0" transform="translate(.000001 0)" fill="#edbd2d"/><g clip-path="url(#eU19p4HavSX154)"><g><path d="M140.339844,163.519531l-32.042969-35.585937c-.769531-.855469-2.113281-.855469-2.886719,0l-1.25,1.390625l30.785156,34.195312c.5625.625.121094,1.621094-.71875,1.621094h5.390626c.839843,0,1.285156-.996094.722656-1.621094Zm0,0" fill="#99b94d"/></g><clipPath id="eU19p4HavSX154" transform="translate(0 0.000001)"><path d="M104,127.078125h37L141,166h-37Zm0,0" transform="translate(0 0.000001)"/></clipPath></g><g clip-path="url(#eU19p4HavSX159)"><g><path d="M71.914062,186.207031v34.929688c0,1.070312.867188,1.9375,1.9375,1.9375h10.03125c1.90625,0,3.511719-1.386719,3.832032-3.265625c1.554687-9.160156,9.53125-16.136719,19.140625-16.136719c9.605469,0,17.582031,6.976563,19.136719,16.136719.320312,1.878906,1.925781,3.265625,3.832031,3.265625h10.03125c1.070312,0,1.9375-.867188,1.9375-1.9375v-34.929688c0-1.074219-.867188-1.941406-1.9375-1.941406h-66.003907c-1.070312,0-1.9375.871094-1.9375,1.941406Zm0,0" fill="#b9e4ef"/></g><clipPath id="eU19p4HavSX159" transform="translate(0 0.000001)"><path d="M71,184h71v39.078125h-71Zm0,0" transform="translate(0 0.000001)"/></clipPath></g><g clip-path="url(#eU19p4HavSX164)"><g><path d="M141.796875,221.203125c0,1.035156.839844,1.875,1.875,1.875h15.660156c1.039063,0,1.875-.839844,1.875-1.875v-16.136719c0-1.035156-.839843-1.875-1.875-1.875h-15.660156c-1.039063,0-1.875.839844-1.875,1.875l-2.015625,8.066406Zm0,0" fill="#f4d844"/></g><clipPath id="eU19p4HavSX164" transform="translate(.000001 0.000001)"><path d="M139,203h22.234375v20.078125h-22.234375Zm0,0" transform="translate(.000001 0.000001)"/></clipPath></g><g clip-path="url(#eU19p4HavSX169)"><g><path d="M159.332031,203.191406h-5.390625c1.035156,0,1.875.839844,1.875,1.875v16.136719c0,1.035156-.839844,1.875-1.875,1.875h5.390625c1.039063,0,1.875-.839844,1.875-1.875v-16.136719c0-1.035156-.835937-1.875-1.875-1.875Zm0,0" fill="#edbd2d"/></g><clipPath id="eU19p4HavSX169" transform="translate(.000001 0.000001)"><path d="M153,203h8.234375v20.078125h-8.234375Zm0,0" transform="translate(.000001 0.000001)"/></clipPath></g><g clip-path="url(#eU19p4HavSX174)"><g><path d="M141.796875,201.855469c0,1.03125.839844,1.871093,1.875,1.871093h15.660156c1.039063,0,1.875-.835937,1.875-1.871093v-16.136719c0-1.039062-.839843-1.875-1.875-1.875h-15.660156c-1.039063,0-1.875.835938-1.875,1.875l-2.015625,8.066406Zm0,0" fill="#f4d844"/></g><clipPath id="eU19p4HavSX174" transform="translate(.000001 0)"><path d="M139,183h22.234375v21L139,204Zm0,0" transform="translate(.000001 0)"/></clipPath></g><g clip-path="url(#eU19p4HavSX179)"><g><path d="M159.332031,183.84375h-5.390625c1.035156,0,1.875.835938,1.875,1.875v16.136719c0,1.03125-.839844,1.871093-1.875,1.871093h5.390625c1.039063,0,1.875-.839843,1.875-1.871093v-16.136719c0-1.039062-.835937-1.875-1.875-1.875Zm0,0" fill="#edbd2d"/></g><clipPath id="eU19p4HavSX179" transform="translate(.000001 0)"><path d="M153,183h8.234375v21L153,204Zm0,0" transform="translate(.000001 0)"/></clipPath></g><g clip-path="url(#eU19p4HavSX184)"><g><path d="M101.464844,203.671875c-9.609375,0-17.585938,6.976563-19.140625,16.136719-.316407,1.878906-1.921875,3.265625-3.832031,3.265625h5.390624c1.90625,0,3.511719-1.386719,3.832032-3.265625c1.40625-8.289063,8.070312-14.789063,16.445312-15.949219-.882812-.125-1.78125-.1875-2.695312-.1875Zm0,0" fill="#93d8e4"/></g><clipPath id="eU19p4HavSX184" transform="translate(0 0.000001)"><path d="M78,203h27v20.078125h-27Zm0,0" transform="translate(0 0.000001)"/></clipPath></g><g clip-path="url(#eU19p4HavSX189)"><g><path d="M139.855469,184.265625h-5.390625c1.074218,0,1.941406.867187,1.941406,1.941406v34.925781c0,1.074219-.867188,1.941407-1.941406,1.941407h5.390625c1.074219,0,1.941406-.867188,1.941406-1.941407v-34.925781c0-1.070312-.867187-1.941406-1.941406-1.941406Zm0,0" fill="#93d8e4"/></g><clipPath id="eU19p4HavSX189" transform="translate(0 0.000001)"><path d="M134,184h8v39.078125h-8Zm0,0" transform="translate(0 0.000001)"/></clipPath></g><g id="eU19p4HavSX191" transform="matrix(.5 0 0 0.5 137.125977 150.120117)" clip-path="url(#eU19p4HavSX194)"><g><path d="M264.464844,281.113281c-5.972656,0-10.820313,4.859375-10.820313,10.84375c0,12.179688,12.253907,15.371094,20.605469,27.410157c7.898438-11.964844,20.609375-15.621094,20.609375-27.410157c0-5.984375-4.847656-10.84375-10.820313-10.84375-4.332031,0-8.0625,2.566407-9.789062,6.253907-1.726562-3.6875-5.453125-6.253907-9.785156-6.253907Zm0,0" fill="#bf1304"/></g><clipPath id="eU19p4HavSX194"><path d="M253.625,281.109375h41.25v38.25h-41.25Zm0,0"/></clipPath></g><g><g transform="translate(137.538 305.422)"><g><path d="M5.21875,0.296875c-1.3125,0-2.277344-.359375-2.890625-1.078125-.242187-.28125-.449219-.632812-.625-1.0625-.167969-.4375-.304687-1-.40625-1.6875-.09375-.695312-.164063-1.554688-.203125-2.578125-.03125-1.03125-.046875-2.28125-.046875-3.75c0-.476563.007813-.867187.03125-1.171875.019531-.300781.0625-.539062.125-.71875.070313-.1875.164063-.3125.28125-.375.113281-.070312.253906-.109375.421875-.109375.332031,0,.566406.152344.703125.453125.144531.304688.21875.824219.21875,1.5625c0,.25-.007813.476562-.015625.671875c0,.199219,0,.402344,0,.609375c0,.199219-.007812.417969-.015625.65625c0,.242188,0,.539062,0,.890625c0,1.15625.035156,2.117187.109375,2.875.070312.761719.203125,1.371094.390625,1.828125.1875.460938.4375.78125.75.96875.320313.1875.722656.28125,1.203125.28125.488281,0,.898438-.097656,1.234375-.296875.332031-.207031.59375-.550781.78125-1.03125.195313-.476563.335937-1.117187.421875-1.921875.09375-.800781.140625-1.796875.140625-2.984375c0-.519531-.007813-.960937-.015625-1.328125c0-.375,0-.710938,0-1.015625c0-.425781.015625-.785156.046875-1.078125.03125-.289062.078125-.519531.140625-.6875.0625-.164062.148438-.28125.265625-.34375.113281-.070312.257813-.109375.4375-.109375.164063,0,.304687.039063.421875.109375.113281.0625.207031.183594.28125.359375.070312.167969.117188.40625.140625.71875.019531.304687.03125.699219.03125,1.1875c0,2.03125-.0625,3.710937-.1875,5.03125-.125,1.3125-.351563,2.351563-.671875,3.109375-.324219.75-.765625,1.277344-1.328125,1.578125-.5625.289063-1.289063.4375-2.171875.4375Zm0,0" fill="#004aad"/></g></g></g><g><g transform="translate(148.159 305.422)"><g transform="translate(.000001 0)"><path d="M7.921875,-0.8125c-.375-.507812-.730469-1.015625-1.0625-1.515625-.324219-.507813-.671875-1.0625-1.046875-1.65625-.375-.601563-.808594-1.269531-1.296875-2-.480469-.738281-1.054687-1.601563-1.71875-2.59375c0,.867187,0,1.648437,0,2.34375c0,.6875-.007813,1.328125-.015625,1.921875-.011719.585938-.027344,1.136719-.046875,1.65625-.011719.523438-.027344,1.042969-.046875,1.5625-.011719.28125-.039062.5-.078125.65625-.042969.148438-.101563.261719-.171875.34375-.0625.074219-.140625.113281-.234375.125-.085937.019531-.183594.03125-.296875.03125-.210938,0-.382812-.066406-.515625-.203125-.136719-.144531-.21875-.457031-.25-.9375-.054687-1.269531-.085937-2.546875-.09375-3.828125c0-1.28125,0-2.601562,0-3.96875c0-.769531.003906-1.375.015625-1.8125.019531-.445312.0625-.78125.125-1s.144531-.351562.25-.40625c.113281-.0625.265625-.09375.453125-.09375s.429687.148438.734375.4375c.300781.28125.628906.652344.984375,1.109375.363281.460937.75.992187,1.15625,1.59375.40625.605469.8125,1.226563,1.21875,1.859375.40625.636719.796875,1.265625,1.171875,1.890625s.71875,1.195313,1.03125,1.703125c-.011719-.539062-.015625-1.140625-.015625-1.796875s0-1.378906,0-2.171875c0-.914062.003906-1.671875.015625-2.265625.007812-.601563.039062-1.078125.09375-1.421875.050781-.34375.132812-.582031.25-.71875.125-.144531.289062-.21875.5-.21875.195312,0,.367188.070312.515625.203125.144531.125.234375.417969.265625.875.019531.417969.035156.789063.046875,1.109375.007813.324219.019531.648438.03125.96875.007813.3125.015625.640625.015625.984375s0,.730469,0,1.15625c0,.523437,0,1.023437,0,1.5c0,.46875-.007812.9375-.015625,1.40625-.011719.460937-.023437.929687-.03125,1.40625-.011719.46875-.027344.964844-.046875,1.484375-.011719.28125-.039062.5-.078125.65625-.042969.148438-.101563.261719-.171875.34375-.074219.074219-.152344.113281-.234375.125-.085937.019531-.183594.03125-.296875.03125-.199219,0-.371094-.058594-.515625-.171875-.136719-.113281-.335937-.347656-.59375-.703125Zm0,0" transform="translate(.000001 0)" fill="#004aad"/></g></g></g><g><g transform="translate(162.738 305.422)"><g transform="translate(0 0.000001)"><path d="M6.09375,-12.296875c.382812,0,.769531.039063,1.15625.109375.382812.0625.734375.164062,1.046875.296875.3125.125.566406.289063.765625.484375.207031.1875.3125.40625.3125.65625c0,.273438-.074219.480469-.21875.625-.136719.136719-.308594.203125-.515625.203125-.199219,0-.371094-.03125-.515625-.09375-.148438-.070313-.320312-.144531-.515625-.21875-.1875-.082031-.417969-.15625-.6875-.21875-.261719-.0625-.609375-.09375-1.046875-.09375-.449219,0-.871094.117187-1.265625.34375-.398437.21875-.746094.53125-1.046875.9375-.292969.398437-.527344.867187-.703125,1.40625-.167969.542969-.25,1.132813-.25,1.765625c0,.792969.097656,1.46875.296875,2.03125.207031.5625.472656,1.027344.796875,1.390625.320313.367187.6875.640625,1.09375.828125.414063.179688.832031.265625,1.25.265625.488281,0,.898437-.050781,1.234375-.15625.34375-.101563.628906-.21875.859375-.34375.238281-.132813.445313-.253906.625-.359375.175781-.101562.34375-.15625.5-.15625.195313,0,.351563.058594.46875.171875.113281.117187.171875.308594.171875.578125c0,.230469-.089844.464844-.265625.703125-.179687.242187-.4375.460937-.78125.65625-.34375.1875-.757813.34375-1.234375.46875-.46875.113281-.996094.171875-1.578125.171875-.65625,0-1.308594-.125-1.953125-.375-.636719-.257812-1.210938-.640625-1.71875-1.140625C1.875,-1.867188,1.46875,-2.5,1.15625,-3.25c-.3125-.757812-.46875-1.644531-.46875-2.65625c0-1,.140625-1.890625.421875-2.671875.289063-.789063.679687-1.460937,1.171875-2.015625.488281-.550781,1.0625-.972656,1.71875-1.265625.65625-.289063,1.351562-.4375,2.09375-.4375Zm0,0" transform="translate(0 0.000001)" fill="#004aad"/></g></g></g><g><g transform="translate(173.134 305.422)"><g><path d="M5.6875,0.171875c-.6875,0-1.339844-.136719-1.953125-.40625-.605469-.28125-1.136719-.679687-1.59375-1.203125-.449219-.53125-.804687-1.175781-1.0625-1.9375-.261719-.769531-.390625-1.640625-.390625-2.609375c0-.914063.113281-1.753906.34375-2.515625.226562-.769531.5625-1.429688,1-1.984375.445312-.550781,1-.976563,1.65625-1.28125.664062-.3125,1.429688-.46875,2.296875-.46875.707031,0,1.378906.132813,2.015625.390625.632812.25,1.191406.632812,1.671875,1.140625.476563.5.859375,1.136719,1.140625,1.90625.28125.761719.421875,1.652344.421875,2.671875c0,.84375-.117187,1.652344-.34375,2.421875-.230469.761719-.574219,1.429687-1.03125,2-.449219.574219-1.023437,1.03125-1.71875,1.375-.699219.332031-1.515625.5-2.453125.5Zm.046875-1.625c.632813,0,1.1875-.128906,1.65625-.390625.476563-.257812.875-.601562,1.1875-1.03125.3125-.4375.539063-.929688.6875-1.484375C9.421875,-4.921875,9.5,-5.5,9.5,-6.09375c0-.71875-.101562-1.359375-.296875-1.921875-.1875-.5625-.445313-1.03125-.765625-1.40625-.324219-.382813-.699219-.675781-1.125-.875-.429688-.207031-.886719-.3125-1.375-.3125-.585938,0-1.09375.125-1.53125.375-.429688.242187-.792969.570313-1.09375.984375-.292969.417969-.511719.90625-.65625,1.46875-.148438.5625-.21875,1.164062-.21875,1.796875c0,.679687.082031,1.296875.25,1.859375.175781.5625.410156,1.042969.703125,1.4375.300781.398438.648437.703125,1.046875.921875.40625.210937.835938.3125,1.296875.3125Zm0,0" fill="#004aad"/></g></g></g><g><g transform="translate(185.057 305.422)"><g transform="translate(0 0.000001)"><path d="M5.046875,-4.265625c-.15625.011719-.320313.023437-.484375.03125-.167969,0-.339844,0-.515625,0-.199219,0-.398437,0-.59375,0-.199219,0-.417969-.007813-.65625-.03125v3.515625c0,.375-.09375.605469-.28125.6875-.179687.082031-.398437.125-.65625.125-.136719,0-.246094-.011719-.328125-.03125-.085938-.011719-.152344-.039062-.203125-.09375-.054687-.050781-.09375-.128906-.125-.234375-.03125-.101563-.054687-.25-.0625-.4375-.023437-.207031-.039063-.507813-.046875-.90625-.011719-.394531-.023438-.910156-.03125-1.546875c0-.644531-.007812-1.421875-.015625-2.328125c0-.90625,0-1.972656,0-3.203125c0-.46875.054687-.925781.171875-1.375.113281-.445312.320312-.835938.625-1.171875.300781-.34375.707031-.617187,1.21875-.828125.519531-.207031,1.175781-.3125,1.96875-.3125.570312,0,1.125.0625,1.65625.1875.539062.125,1.019531.34375,1.4375.65625.414062.3125.75.734375,1,1.265625.257812.53125.390625,1.199219.390625,2c0,1.0625-.230469,1.886719-.6875,2.46875-.460937.585937-1.089844,1-1.890625,1.25l2.328125,3.1875c.207031.28125.3125.570313.3125.859375c0,.230469-.078125.40625-.234375.53125-.15625.132812-.351562.203125-.578125.203125-.25,0-.46875-.070313-.65625-.203125-.1875-.144531-.359375-.335938-.515625-.578125ZM7.78125,-8.3125c0-.800781-.242188-1.394531-.71875-1.78125-.480469-.382812-1.242188-.578125-2.28125-.578125-.386719,0-.710938.03125-.96875.09375-.25.0625-.453125.183594-.609375.359375-.148437.167969-.25.40625-.3125.71875-.0625.304688-.09375.695312-.09375,1.171875c0,.335937,0,.730469,0,1.1875c0,.449219.003906.855469.015625,1.21875.269531.011719.566406.015625.890625.015625.332031,0,.644531,0,.9375,0c.320313,0,.664063-.019531,1.03125-.0625.363281-.039062.703125-.144531,1.015625-.3125C7,-6.445312,7.257812,-6.6875,7.46875,-7c.207031-.320312.3125-.757812.3125-1.3125Zm0,0" transform="translate(0 0.000001)" fill="#004aad"/></g></g></g><g><g transform="translate(195.071 305.422)"><g transform="translate(.000001 0)"><path d="M8.3125,-0.890625c-.117188-.269531-.242188-.585937-.375-.953125-.125-.363281-.265625-.75-.421875-1.15625-.34375.011719-.710937.023438-1.09375.03125-.386719,0-.773437,0-1.15625,0-.5,0-.953125,0-1.359375,0s-.777344-.003906-1.109375-.015625c-.136719.40625-.273437.792969-.40625,1.15625-.125.355469-.246094.667969-.359375.9375-.230469.59375-.5625.890625-1,.890625-.167969,0-.324219-.050781-.46875-.15625-.148438-.101562-.21875-.253906-.21875-.453125c0-.195313.035156-.453125.109375-.765625.070313-.320312.160156-.664062.265625-1.03125.113281-.363281.234375-.738281.359375-1.125.125-.382812.242187-.75.359375-1.09375.113281-.363281.273438-.832031.484375-1.40625.21875-.570312.445313-1.171875.6875-1.796875.25-.625.492187-1.238281.734375-1.84375.25-.613281.472656-1.144531.671875-1.59375.039063-.113281.09375-.242187.15625-.390625.070313-.144531.15625-.28125.25-.40625.101563-.125.21875-.234375.34375-.328125s.257813-.140625.40625-.140625c.15625,0,.296875.054688.421875.15625.125.09375.234375.210938.328125.34375.101563.136719.191406.28125.265625.4375.070312.148438.132812.277344.1875.390625.1875.46875.394531,1.007813.625,1.609375.238281.59375.476562,1.199219.71875,1.8125.238281.617188.460938,1.203125.671875,1.765625.207031.554687.375,1.015625.5,1.390625.101563.34375.21875.710938.34375,1.09375.132813.375.257813.75.375,1.125.125.367188.222656.710938.296875,1.03125.070312.3125.109375.570312.109375.765625c0,.199219-.074219.351563-.21875.453125C9.648438,-0.050781,9.5,0,9.34375,0c-.210938,0-.402344-.070312-.578125-.21875-.179687-.144531-.328125-.367188-.453125-.671875ZM5.25,-4.703125c.269531,0,.546875.007813.828125.015625.28125,0,.554687.007812.828125.015625-.136719-.40625-.277344-.8125-.421875-1.21875-.136719-.40625-.265625-.789063-.390625-1.15625-.117188-.375-.226562-.71875-.328125-1.03125-.09375-.320313-.179687-.601563-.25-.84375-.042969-.144531-.09375-.265625-.15625-.359375-.054687-.09375-.125-.140625-.21875-.140625s-.171875.054687-.234375.15625c-.054688.09375-.105469.214844-.15625.359375-.136719.480469-.328125,1.101562-.578125,1.859375-.25.75-.511719,1.542969-.78125,2.375.3125-.007813.625-.015625.9375-.015625.3125-.007812.617187-.015625.921875-.015625Zm0,0" transform="translate(.000001 0)" fill="#004aad"/></g></g></g><g><g transform="translate(205.433 305.422)"><g transform="translate(.000001 0.000001)"><path d="M7.484375,-0.03125c-.210937.023438-.46875.035156-.78125.046875-.304687.019531-.632813.035156-.984375.046875-.355469.019531-.726562.035156-1.109375.046875-.386719.007813-.761719.015625-1.125.015625-.625,0-1.132813-.007812-1.515625-.015625-.386719-.011719-.6875-.039062-.90625-.078125-.210938-.039062-.355469-.101562-.4375-.1875-.074219-.082031-.109375-.191406-.109375-.328125c0-.257813.066406-.554687.203125-.890625.144531-.34375.3125-.6875.5-1.03125.195312-.351562.390625-.679688.578125-.984375.195313-.3125.347656-.550781.453125-.71875L6.109375,-10.375c-.21875,0-.367187.007812-.4375.015625-.074219,0-.167969.007813-.28125.015625-.117187,0-.289063,0-.515625,0-.21875,0-.578125,0-1.078125,0-.71875,0-1.292969-.003906-1.71875-.015625-.417969-.019531-.734375-.0625-.953125-.125-.210938-.0625-.34375-.144531-.40625-.25-.0625-.101563-.09375-.242187-.09375-.421875c0-.289062.066406-.492188.203125-.609375.144531-.125.441406-.210937.890625-.265625.1875-.007812.394531-.019531.625-.03125.226562-.019531.46875-.03125.71875-.03125.25-.007812.492188-.019531.734375-.03125.25-.007812.476563-.015625.6875-.015625.207031,0,.40625.007813.59375.015625.1875.011719.378906.023438.578125.03125.207031,0,.425781.007812.65625.015625.238281.011719.507812.023437.8125.03125.082031,0,.195312.011719.34375.03125.144531.011719.285156.039063.421875.078125.132813.03125.242187.085938.328125.15625.09375.074219.140625.179688.140625.3125c0,.210938-.09375.527344-.28125.953125-.1875.417969-.445313.902344-.765625,1.453125-.3125.542969-.679688,1.136719-1.09375,1.78125-.40625.648438-.824219,1.304688-1.25,1.96875-.429688.65625-.851562,1.3125-1.265625,1.96875-.417969.648438-.796875,1.246094-1.140625,1.796875.207031-.007813.507812-.015625.90625-.015625.40625-.007812.78125-.015625,1.125-.015625s.769531.007813,1.28125.015625c.519531.011719,1.050781.042969,1.59375.09375.269531.023438.476562.046875.625.078125.15625.03125.273438.085937.359375.15625.082031.0625.128906.140625.140625.234375.019531.085938.03125.199219.03125.34375c0,.09375-.007812.179688-.015625.25-.011719.0625-.054687.121094-.125.171875-.0625.054687-.171875.09375-.328125.125s-.382812.058594-.671875.078125Zm0,0" transform="translate(.000001 0.000001)" fill="#004aad"/></g></g></g><g><g transform="translate(214.579 305.422)"><g transform="translate(0 0.000001)"><path d="M5.6875,0.171875c-.6875,0-1.339844-.136719-1.953125-.40625-.605469-.28125-1.136719-.679687-1.59375-1.203125-.449219-.53125-.804687-1.175781-1.0625-1.9375-.261719-.769531-.390625-1.640625-.390625-2.609375c0-.914063.113281-1.753906.34375-2.515625.226562-.769531.5625-1.429688,1-1.984375.445312-.550781,1-.976563,1.65625-1.28125.664062-.3125,1.429688-.46875,2.296875-.46875.707031,0,1.378906.132813,2.015625.390625.632812.25,1.191406.632812,1.671875,1.140625.476563.5.859375,1.136719,1.140625,1.90625.28125.761719.421875,1.652344.421875,2.671875c0,.84375-.117187,1.652344-.34375,2.421875-.230469.761719-.574219,1.429687-1.03125,2-.449219.574219-1.023437,1.03125-1.71875,1.375-.699219.332031-1.515625.5-2.453125.5Zm.046875-1.625c.632813,0,1.1875-.128906,1.65625-.390625.476563-.257812.875-.601562,1.1875-1.03125.3125-.4375.539063-.929688.6875-1.484375C9.421875,-4.921875,9.5,-5.5,9.5,-6.09375c0-.71875-.101562-1.359375-.296875-1.921875-.1875-.5625-.445313-1.03125-.765625-1.40625-.324219-.382813-.699219-.675781-1.125-.875-.429688-.207031-.886719-.3125-1.375-.3125-.585938,0-1.09375.125-1.53125.375-.429688.242187-.792969.570313-1.09375.984375-.292969.417969-.511719.90625-.65625,1.46875-.148438.5625-.21875,1.164062-.21875,1.796875c0,.679687.082031,1.296875.25,1.859375.175781.5625.410156,1.042969.703125,1.4375.300781.398438.648437.703125,1.046875.921875.40625.210937.835938.3125,1.296875.3125ZM4.875,-13.484375c-.125-.019531-.25-.0625-.375-.125-.117188-.070313-.171875-.191406-.171875-.359375.007813-.144531.09375-.304688.25-.484375.15625-.1875.347656-.375.578125-.5625.226562-.195313.488281-.382813.78125-.5625.289062-.175781.578125-.332031.859375-.46875.28125-.144531.539063-.257813.78125-.34375.25-.09375.445313-.140625.59375-.140625.195313,0,.367187.0625.515625.1875.144531.117188.21875.28125.21875.5c0,.136719-.078125.289062-.234375.453125-.148437.167969-.34375.339844-.59375.515625-.242187.179688-.511719.351562-.8125.515625-.292969.167969-.589844.3125-.890625.4375-.292969.125-.574219.230469-.84375.3125-.261719.085937-.480469.125-.65625.125Zm0,0" transform="translate(0 0.000001)" fill="#004aad"/></g></g></g><g><g transform="translate(226.502 305.422)"><g transform="translate(.000001 0)"><path d="M7.921875,-0.8125c-.375-.507812-.730469-1.015625-1.0625-1.515625-.324219-.507813-.671875-1.0625-1.046875-1.65625-.375-.601563-.808594-1.269531-1.296875-2-.480469-.738281-1.054687-1.601563-1.71875-2.59375c0,.867187,0,1.648437,0,2.34375c0,.6875-.007813,1.328125-.015625,1.921875-.011719.585938-.027344,1.136719-.046875,1.65625-.011719.523438-.027344,1.042969-.046875,1.5625-.011719.28125-.039062.5-.078125.65625-.042969.148438-.101563.261719-.171875.34375-.0625.074219-.140625.113281-.234375.125-.085937.019531-.183594.03125-.296875.03125-.210938,0-.382812-.066406-.515625-.203125-.136719-.144531-.21875-.457031-.25-.9375-.054687-1.269531-.085937-2.546875-.09375-3.828125c0-1.28125,0-2.601562,0-3.96875c0-.769531.003906-1.375.015625-1.8125.019531-.445312.0625-.78125.125-1s.144531-.351562.25-.40625c.113281-.0625.265625-.09375.453125-.09375s.429687.148438.734375.4375c.300781.28125.628906.652344.984375,1.109375.363281.460937.75.992187,1.15625,1.59375.40625.605469.8125,1.226563,1.21875,1.859375.40625.636719.796875,1.265625,1.171875,1.890625s.71875,1.195313,1.03125,1.703125c-.011719-.539062-.015625-1.140625-.015625-1.796875s0-1.378906,0-2.171875c0-.914062.003906-1.671875.015625-2.265625.007812-.601563.039062-1.078125.09375-1.421875.050781-.34375.132812-.582031.25-.71875.125-.144531.289062-.21875.5-.21875.195312,0,.367188.070312.515625.203125.144531.125.234375.417969.265625.875.019531.417969.035156.789063.046875,1.109375.007813.324219.019531.648438.03125.96875.007813.3125.015625.640625.015625.984375s0,.730469,0,1.15625c0,.523437,0,1.023437,0,1.5c0,.46875-.007812.9375-.015625,1.40625-.011719.460937-.023437.929687-.03125,1.40625-.011719.46875-.027344.964844-.046875,1.484375-.011719.28125-.039062.5-.078125.65625-.042969.148438-.101563.261719-.171875.34375-.074219.074219-.152344.113281-.234375.125-.085937.019531-.183594.03125-.296875.03125-.199219,0-.371094-.058594-.515625-.171875-.136719-.113281-.335937-.347656-.59375-.703125Zm0,0" transform="translate(.000001 0)" fill="#004aad"/></g></g></g><g><g transform="translate(59.4911 260.339)"><g><path d="M22.355469,-4.558594c-.472657-.734375-1.207031-1.058594-2.117188-.941406-.589843.058594-1.207031.265625-1.734375.441406-2.5625.824219-5.621094,1.46875-8.828125-.089844C7,-6.472656,5.589844,-9.089844,6.117188,-11.824219c.175781-.882812.441406-2.03125,1.03125-2.941406c2.707031-4.324219,5.734374-5.53125,9.824218-3.882813.558594.207032,1.058594.351563,1.5.410157.589844.058593,1.089844-.117188,1.382813-.527344.265625-.382813.292969-.882813.058593-1.382813-.265624-.558593-.707031-1.117187-1.292968-1.617187-1.558594-1.296875-3.53125-1.941406-5.53125-1.941406-1.734375,0-3.5.5-5.058594,1.5-3.414062,2.175781-5.558594,5.027343-6.472656,8.5C0.382812,-9.117188,1.351562,-5.355469,4.414062,-2.5c2.292969,2.148438,5.351563,3.382812,9.058594,3.675781C16,1.03125,18.265625,0.5,20.414062,-0.46875c.648438-.296875,1.324219-.914062,1.941407-1.707031.53125-.707031.53125-1.589844,0-2.382813Zm0,0" fill="#fff"/></g></g></g><g><g transform="translate(113.728 260.339)"><g><path d="M6.972656,-17.441406c-.058594-1.0625-.238281-1.972656-.5-2.765625-.324218-1.058594-1.089844-1.675781-2.207031-1.707031-1.058594-.058594-2,.589843-2.355469,1.648437-.261718.792969-.4375,1.675781-.527344,2.585937-.117187,1.472657-.175781,2.941407-.234374,4.414063-.03125.46875-.058594.96875-.058594,1.441406h.117187v.324219c0,.644531,0,1.292969-.03125,1.941406c0,1.5-.027343,3.085938.058594,4.617188.058594,1.117187.382813,2.234375.855469,3.117187.382812.675781,1.027344,1.089844,1.703125,1.089844.03125,0,.03125,0,.03125,0c.734375,0,1.441406-.441406,1.851562-1.207031.265625-.46875.441407-.910156.472657-1.324219L6.355469,-5c.4375-4.058594.910156-8.265625.617187-12.441406Zm0,0" fill="#fff"/></g></g></g><g><g transform="translate(152.727 260.339)"><g><path d="M22.03125,-21.03125c-.234375-1.117188-1.027344-1.914062-2.058594-2.03125-1.117187-.144531-2.117187.472656-2.53125,1.5-.320312.824219-.527344,1.707031-.558594,2.53125-.117187,2.265625-.175781,4.558594-.234374,6.792969-.027344.914062-.058594,1.824219-.085938,2.738281c0,.234375-.03125.46875-.03125.703125l-.03125.53125-.761719.292969-1.441406-1.882813c-.972656-1.234375-1.914063-2.441406-2.855469-3.675781-.527344-.707031-1.058594-1.441406-1.617187-2.148438-.941407-1.261718-1.910157-2.558593-2.910157-3.792968-.414062-.558594-.972656-1.03125-1.589843-1.382813-.410157-.234375-.882813-.382812-1.324219-.382812-.265625,0-.527344.058593-.792969.148437-.707031.234375-1.265625.792969-1.589843,1.558594-.175782.46875-.292969.910156-.324219,1.324219-.410157,4.734375-.261719,9.792969.472656,15.914062.058594.441407.234375.941407.527344,1.410157.324219.53125.824219.824218,1.296875.792968.5-.027344.941406-.378906,1.234375-.941406.207031-.441406.351562-.941406.351562-1.351562.117188-2.46875.207031-4.972657.296875-7.382813l.058594-1.941406c.027344-.207031,0-.441407,0-.648438v-.96875l.527344.382813c.414062.324218.675781.675781.882812,1l.148438.175781c.410156.589844.824218,1.207031,1.265625,1.792969c1,1.441406,2.058593,2.941406,3.203125,4.265625.972656,1.148437,2.472656,2.765625,4.238281,3.765625c1.703125.972656,3.175781,1.175781,4.265625.589844c1.085938-.621094,1.703125-2.03125,1.792969-4.03125.148437-3.792969.207031-7.648438.292969-11.382813l.03125-2.414063c.027343-.644531-.03125-1.265624-.148438-1.851562Zm0,0" fill="#fff"/></g></g></g><g><g transform="translate(199.027 260.339)"><g><path d="M22.355469,-4.558594c-.472657-.734375-1.207031-1.058594-2.117188-.941406-.589843.058594-1.207031.265625-1.734375.441406-2.5625.824219-5.621094,1.46875-8.828125-.089844C7,-6.472656,5.589844,-9.089844,6.117188,-11.824219c.175781-.882812.441406-2.03125,1.03125-2.941406c2.707031-4.324219,5.734374-5.53125,9.824218-3.882813.558594.207032,1.058594.351563,1.5.410157.589844.058593,1.089844-.117188,1.382813-.527344.265625-.382813.292969-.882813.058593-1.382813-.265624-.558593-.707031-1.117187-1.292968-1.617187-1.558594-1.296875-3.53125-1.941406-5.53125-1.941406-1.734375,0-3.5.5-5.058594,1.5-3.414062,2.175781-5.558594,5.027343-6.472656,8.5C0.382812,-9.117188,1.351562,-5.355469,4.414062,-2.5c2.292969,2.148438,5.351563,3.382812,9.058594,3.675781C16,1.03125,18.265625,0.5,20.414062,-0.46875c.648438-.296875,1.324219-.914062,1.941407-1.707031.53125-.707031.53125-1.589844,0-2.382813Zm0,0" fill="#fff"/></g></g></g><g><g transform="translate(246.058 260.339)"><g><path d="M12.5,-21.914062c-.144531-.03125-.292969-.03125-.46875-.03125-.292969,0-.617188.03125-.941406.089843l-.292969.03125c-4.5625.585938-7.5625,3.144531-9.179687,7.824219-.96875,2.792969-.648438,6.292969.824218,8.882812c1.324219,2.292969,3.5,3.824219,6.265625,4.382813l.089844.027344c.4375.089843.878906.175781,1.320313.238281c3.0625.351562,5.472656-.53125,7.355468-2.765625l.589844-.648437c.46875-.558594.96875-1.148438,1.441406-1.707032c1.320313-1.585937,2.058594-3.558594,2.292969-6.234375-.382813-6.648437-4-8.824219-9.296875-10.089843Zm3.941406,10.558593c-.117187.265625-.234375.53125-.351562.824219-.292969.648438-.589844,1.296875-.96875,1.941406-.265625.441406-.621094.792969-.941406,1.148438-.148438.148437-.296876.292968-.414063.441406-.824219.882812-1.941406,1.382812-3.148437,1.382812-.292969,0-.558594-.03125-.851563-.089843C8.207031,-6,6.941406,-7.089844,6.382812,-8.589844c-.824218-2.292968-.441406-4.46875,1.175782-6.882812c1.03125-1.558594,2.179687-1.824219,3.882812-.941406.648438.324218,1.324219.648437,2.179688.972656c1.851562.761718,2.617187,1.792968,2.851562,3.910156v.089844Zm0,0" fill="#fff"/></g></g></g><g><g transform="translate(297.499 260.339)"><g><path d="M9.914062,-10.058594c-.265624-.089844-.589843-.179687-.882812-.207031-.589844,0-.765625-.292969-.824219-.851563-.089843-.707031-.175781-1.441406-.5-2.0625-.265625-.5-.824219-.878906-1.117187-1.144531-1.441406.144531-1.855469.910157-1.941406,1.824219-.148438,1.351562-.382813,2.441406-2.175782,2.441406-.855468,0-1.382812.761719-1.382812,1.675782-.03125.824218.644531,1.5,1.558594,1.707031.203124.027343.410156.085937.617187.058593.617187,0,.824219.261719.851563.910157.058593.792969.175781,1.617187.5,2.324219.617187,1.292968,2.089843,1.351562,2.882812.148437.324219-.53125.617188-1.179687.648438-1.765625.058593-1.207031.351562-1.972656,1.734374-2.175781.441407-.058594.972657-.855469,1.117188-1.414063.207031-.734375-.410156-1.207031-1.085938-1.46875Zm0,0" fill="#fff"/></g></g></g>
<script><![CDATA[
!function(t,n){"object"==typeof exports&&"undefined"!=typeof module?module.exports=n():"function"==typeof __SVGATOR_DEFINE__&&__SVGATOR_DEFINE__.amd?__SVGATOR_DEFINE__(n):((t="undefined"!=typeof globalThis?globalThis:t||self).__SVGATOR_PLAYER__=t.__SVGATOR_PLAYER__||{},t.__SVGATOR_PLAYER__["5c7f360c"]=n())}(this,(function(){"use strict";function t(t,n){var e=Object.keys(t);if(Object.getOwnPropertySymbols){var r=Object.getOwnPropertySymbols(t);n&&(r=r.filter((function(n){return Object.getOwnPropertyDescriptor(t,n).enumerable}))),e.push.apply(e,r)}return e}function n(n){for(var e=1;e<arguments.length;e++){var r=null!=arguments[e]?arguments[e]:{};e%2?t(Object(r),!0).forEach((function(t){o(n,t,r[t])})):Object.getOwnPropertyDescriptors?Object.defineProperties(n,Object.getOwnPropertyDescriptors(r)):t(Object(r)).forEach((function(t){Object.defineProperty(n,t,Object.getOwnPropertyDescriptor(r,t))}))}return n}function e(t){return(e="function"==typeof Symbol&&"symbol"==typeof Symbol.iterator?function(t){return typeof t}:function(t){return t&&"function"==typeof Symbol&&t.constructor===Symbol&&t!==Symbol.prototype?"symbol":typeof t})(t)}function r(t,n){if(!(t instanceof n))throw new TypeError("Cannot call a class as a function")}function i(t,n){for(var e=0;e<n.length;e++){var r=n[e];r.enumerable=r.enumerable||!1,r.configurable=!0,"value"in r&&(r.writable=!0),Object.defineProperty(t,r.key,r)}}function u(t,n,e){return n&&i(t.prototype,n),e&&i(t,e),t}function o(t,n,e){return n in t?Object.defineProperty(t,n,{value:e,enumerable:!0,configurable:!0,writable:!0}):t[n]=e,t}function a(t){return(a=Object.setPrototypeOf?Object.getPrototypeOf:function(t){return t.__proto__||Object.getPrototypeOf(t)})(t)}function l(t,n){return(l=Object.setPrototypeOf||function(t,n){return t.__proto__=n,t})(t,n)}function s(){if("undefined"==typeof Reflect||!Reflect.construct)return!1;if(Reflect.construct.sham)return!1;if("function"==typeof Proxy)return!0;try{return Boolean.prototype.valueOf.call(Reflect.construct(Boolean,[],(function(){}))),!0}catch(t){return!1}}function f(t,n,e){return(f=s()?Reflect.construct:function(t,n,e){var r=[null];r.push.apply(r,n);var i=new(Function.bind.apply(t,r));return e&&l(i,e.prototype),i}).apply(null,arguments)}function c(t,n){if(n&&("object"==typeof n||"function"==typeof n))return n;if(void 0!==n)throw new TypeError("Derived constructors may only return object or undefined");return function(t){if(void 0===t)throw new ReferenceError("this hasn't been initialised - super() hasn't been called");return t}(t)}function h(t,n,e){return(h="undefined"!=typeof Reflect&&Reflect.get?Reflect.get:function(t,n,e){var r=function(t,n){for(;!Object.prototype.hasOwnProperty.call(t,n)&&null!==(t=a(t)););return t}(t,n);if(r){var i=Object.getOwnPropertyDescriptor(r,n);return i.get?i.get.call(e):i.value}})(t,n,e||t)}function v(t){return function(t){if(Array.isArray(t))return y(t)}(t)||function(t){if("undefined"!=typeof Symbol&&null!=t[Symbol.iterator]||null!=t["@@iterator"])return Array.from(t)}(t)||function(t,n){if(!t)return;if("string"==typeof t)return y(t,n);var e=Object.prototype.toString.call(t).slice(8,-1);"Object"===e&&t.constructor&&(e=t.constructor.name);if("Map"===e||"Set"===e)return Array.from(t);if("Arguments"===e||/^(?:Ui|I)nt(?:8|16|32)(?:Clamped)?Array$/.test(e))return y(t,n)}(t)||function(){throw new TypeError("Invalid attempt to spread non-iterable instance.\nIn order to be iterable, non-array objects must have a [Symbol.iterator]() method.")}()}function y(t,n){(null==n||n>t.length)&&(n=t.length);for(var e=0,r=new Array(n);e<n;e++)r[e]=t[e];return r}Number.isInteger||(Number.isInteger=function(t){return"number"==typeof t&&isFinite(t)&&Math.floor(t)===t}),Number.EPSILON||(Number.EPSILON=2220446049250313e-31);var g=d(Math.pow(10,-6));function d(t){var n=arguments.length>1&&void 0!==arguments[1]?arguments[1]:6;if(Number.isInteger(t))return t;var e=Math.pow(10,n);return Math.round((+t+Number.EPSILON)*e)/e}function p(t,n){var e=arguments.length>2&&void 0!==arguments[2]?arguments[2]:g;return Math.abs(t-n)<e}var m=Math.PI/180;function b(t){return t}function w(t,n,e){var r=1-e;return 3*e*r*(t*r+n*e)+e*e*e}function A(){var t=arguments.length>0&&void 0!==arguments[0]?arguments[0]:0,n=arguments.length>1&&void 0!==arguments[1]?arguments[1]:0,e=arguments.length>2&&void 0!==arguments[2]?arguments[2]:1,r=arguments.length>3&&void 0!==arguments[3]?arguments[3]:1;return t<0||t>1||e<0||e>1?null:p(t,n)&&p(e,r)?b:function(i){if(i<=0)return t>0?i*n/t:0===n&&e>0?i*r/e:0;if(i>=1)return e<1?1+(i-1)*(r-1)/(e-1):1===e&&t<1?1+(i-1)*(n-1)/(t-1):1;for(var u,o=0,a=1;o<a;){var l=w(t,e,u=(o+a)/2);if(p(i,l))break;l<i?o=u:a=u}return w(n,r,u)}}function _(){return 1}function x(t){return 1===t?1:0}function k(){var t=arguments.length>0&&void 0!==arguments[0]?arguments[0]:1,n=arguments.length>1&&void 0!==arguments[1]?arguments[1]:0;if(1===t){if(0===n)return x;if(1===n)return _}var e=1/t;return function(t){return t>=1?1:(t+=n*e)-t%e}}var S=Math.sin,O=Math.cos,j=Math.acos,E=Math.asin,M=Math.tan,P=Math.atan2,I=Math.PI/180,R=180/Math.PI,F=Math.sqrt,N=function(){function t(){var n=arguments.length>0&&void 0!==arguments[0]?arguments[0]:1,e=arguments.length>1&&void 0!==arguments[1]?arguments[1]:0,i=arguments.length>2&&void 0!==arguments[2]?arguments[2]:0,u=arguments.length>3&&void 0!==arguments[3]?arguments[3]:1,o=arguments.length>4&&void 0!==arguments[4]?arguments[4]:0,a=arguments.length>5&&void 0!==arguments[5]?arguments[5]:0;r(this,t),this.m=[n,e,i,u,o,a],this.i=null,this.w=null,this.s=null}return u(t,[{key:"determinant",get:function(){var t=this.m;return t[0]*t[3]-t[1]*t[2]}},{key:"isIdentity",get:function(){if(null===this.i){var t=this.m;this.i=1===t[0]&&0===t[1]&&0===t[2]&&1===t[3]&&0===t[4]&&0===t[5]}return this.i}},{key:"point",value:function(t,n){var e=this.m;return{x:e[0]*t+e[2]*n+e[4],y:e[1]*t+e[3]*n+e[5]}}},{key:"translateSelf",value:function(){var t=arguments.length>0&&void 0!==arguments[0]?arguments[0]:0,n=arguments.length>1&&void 0!==arguments[1]?arguments[1]:0;if(!t&&!n)return this;var e=this.m;return e[4]+=e[0]*t+e[2]*n,e[5]+=e[1]*t+e[3]*n,this.w=this.s=this.i=null,this}},{key:"rotateSelf",value:function(){var t=arguments.length>0&&void 0!==arguments[0]?arguments[0]:0;if(t%=360){var n=S(t*=I),e=O(t),r=this.m,i=r[0],u=r[1];r[0]=i*e+r[2]*n,r[1]=u*e+r[3]*n,r[2]=r[2]*e-i*n,r[3]=r[3]*e-u*n,this.w=this.s=this.i=null}return this}},{key:"scaleSelf",value:function(){var t=arguments.length>0&&void 0!==arguments[0]?arguments[0]:1,n=arguments.length>1&&void 0!==arguments[1]?arguments[1]:1;if(1!==t||1!==n){var e=this.m;e[0]*=t,e[1]*=t,e[2]*=n,e[3]*=n,this.w=this.s=this.i=null}return this}},{key:"skewSelf",value:function(t,n){if(n%=360,(t%=360)||n){var e=this.m,r=e[0],i=e[1],u=e[2],o=e[3];t&&(t=M(t*I),e[2]+=r*t,e[3]+=i*t),n&&(n=M(n*I),e[0]+=u*n,e[1]+=o*n),this.w=this.s=this.i=null}return this}},{key:"resetSelf",value:function(){var t=arguments.length>0&&void 0!==arguments[0]?arguments[0]:1,n=arguments.length>1&&void 0!==arguments[1]?arguments[1]:0,e=arguments.length>2&&void 0!==arguments[2]?arguments[2]:0,r=arguments.length>3&&void 0!==arguments[3]?arguments[3]:1,i=arguments.length>4&&void 0!==arguments[4]?arguments[4]:0,u=arguments.length>5&&void 0!==arguments[5]?arguments[5]:0,o=this.m;return o[0]=t,o[1]=n,o[2]=e,o[3]=r,o[4]=i,o[5]=u,this.w=this.s=this.i=null,this}},{key:"recomposeSelf",value:function(){var t=arguments.length>0&&void 0!==arguments[0]?arguments[0]:null,n=arguments.length>1&&void 0!==arguments[1]?arguments[1]:null,e=arguments.length>2&&void 0!==arguments[2]?arguments[2]:null,r=arguments.length>3&&void 0!==arguments[3]?arguments[3]:null,i=arguments.length>4&&void 0!==arguments[4]?arguments[4]:null;return this.isIdentity||this.resetSelf(),t&&(t.x||t.y)&&this.translateSelf(t.x,t.y),n&&this.rotateSelf(n),e&&(e.x&&this.skewSelf(e.x,0),e.y&&this.skewSelf(0,e.y)),!r||1===r.x&&1===r.y||this.scaleSelf(r.x,r.y),i&&(i.x||i.y)&&this.translateSelf(i.x,i.y),this}},{key:"decompose",value:function(){var t=arguments.length>0&&void 0!==arguments[0]?arguments[0]:0,n=arguments.length>1&&void 0!==arguments[1]?arguments[1]:0,e=this.m,r=e[0]*e[0]+e[1]*e[1],i=[[e[0],e[1]],[e[2],e[3]]],u=F(r);if(0===u)return{origin:{x:d(e[4]),y:d(e[5])},translate:{x:d(t),y:d(n)},scale:{x:0,y:0},skew:{x:0,y:0},rotate:0};i[0][0]/=u,i[0][1]/=u;var o=e[0]*e[3]-e[1]*e[2]<0;o&&(u=-u);var a=i[0][0]*i[1][0]+i[0][1]*i[1][1];i[1][0]-=i[0][0]*a,i[1][1]-=i[0][1]*a;var l=F(i[1][0]*i[1][0]+i[1][1]*i[1][1]);if(0===l)return{origin:{x:d(e[4]),y:d(e[5])},translate:{x:d(t),y:d(n)},scale:{x:d(u),y:0},skew:{x:0,y:0},rotate:0};i[1][0]/=l,i[1][1]/=l,a/=l;var s=0;return i[1][1]<0?(s=j(i[1][1])*R,i[0][1]<0&&(s=360-s)):s=E(i[0][1])*R,o&&(s=-s),a=P(a,F(i[0][0]*i[0][0]+i[0][1]*i[0][1]))*R,o&&(a=-a),{origin:{x:d(e[4]),y:d(e[5])},translate:{x:d(t),y:d(n)},scale:{x:d(u),y:d(l)},skew:{x:d(a),y:0},rotate:d(s)}}},{key:"clone",value:function(){var t=this.m;return new this.constructor(t[0],t[1],t[2],t[3],t[4],t[5])}},{key:"toString",value:function(){var t=arguments.length>0&&void 0!==arguments[0]?arguments[0]:" ";if(null===this.s){var n=this.m.map((function(t){return d(t)}));1===n[0]&&0===n[1]&&0===n[2]&&1===n[3]?this.s="translate("+n[4]+t+n[5]+")":this.s="matrix("+n.join(t)+")"}return this.s}}],[{key:"create",value:function(t){return t?Array.isArray(t)?f(this,v(t)):t instanceof this?t.clone():(new this).recomposeSelf(t.origin,t.rotate,t.skew,t.scale,t.translate):new this}}]),t}();function T(t,n,e){return t>=.5?e:n}function B(t,n,e){return 0===t||n===e?n:t*(e-n)+n}function q(t,n,e){var r=B(t,n,e);return r<=0?0:r}function D(t,n,e){var r=B(t,n,e);return r<=0?0:r>=1?1:r}function L(t,n,e){return 0===t?n:1===t?e:{x:B(t,n.x,e.x),y:B(t,n.y,e.y)}}function C(t,n,e){var r=function(t,n,e){return Math.round(B(t,n,e))}(t,n,e);return r<=0?0:r>=255?255:r}function V(t,n,e){return 0===t?n:1===t?e:{r:C(t,n.r,e.r),g:C(t,n.g,e.g),b:C(t,n.b,e.b),a:B(t,null==n.a?1:n.a,null==e.a?1:e.a)}}function G(t,n){for(var e=[],r=0;r<t;r++)e.push(n);return e}function z(t,n){if(--n<=0)return t;var e=(t=Object.assign([],t)).length;do{for(var r=0;r<e;r++)t.push(t[r])}while(--n>0);return t}var Y,$=function(){function t(n){r(this,t),this.list=n,this.length=n.length}return u(t,[{key:"setAttribute",value:function(t,n){for(var e=this.list,r=0;r<this.length;r++)e[r].setAttribute(t,n)}},{key:"removeAttribute",value:function(t){for(var n=this.list,e=0;e<this.length;e++)n[e].removeAttribute(t)}},{key:"style",value:function(t,n){for(var e=this.list,r=0;r<this.length;r++)e[r].style[t]=n}}]),t}(),U=/-./g,Q=function(t,n){return n.toUpperCase()};function H(t){return"function"==typeof t?t:T}function J(t){return t?"function"==typeof t?t:Array.isArray(t)?function(t){var n=arguments.length>1&&void 0!==arguments[1]?arguments[1]:b;if(!Array.isArray(t))return n;switch(t.length){case 1:return k(t[0])||n;case 2:return k(t[0],t[1])||n;case 4:return A(t[0],t[1],t[2],t[3])||n}return n}(t,null):function(t,n){var e=arguments.length>2&&void 0!==arguments[2]?arguments[2]:b;switch(t){case"linear":return b;case"steps":return k(n.steps||1,n.jump||0)||e;case"bezier":case"cubic-bezier":return A(n.x1||0,n.y1||0,n.x2||0,n.y2||0)||e}return e}(t.type,t.value,null):null}function Z(t,n,e){var r=arguments.length>3&&void 0!==arguments[3]&&arguments[3],i=n.length-1;if(t<=n[0].t)return r?[0,0,n[0].v]:n[0].v;if(t>=n[i].t)return r?[i,1,n[i].v]:n[i].v;var u,o=n[0],a=null;for(u=1;u<=i;u++){if(!(t>n[u].t)){a=n[u];break}o=n[u]}return null==a?r?[i,1,n[i].v]:n[i].v:o.t===a.t?r?[u,1,a.v]:a.v:(t=(t-o.t)/(a.t-o.t),o.e&&(t=o.e(t)),r?[u,t,e(t,o.v,a.v)]:e(t,o.v,a.v))}function K(t,n){var e=arguments.length>2&&void 0!==arguments[2]?arguments[2]:null;return t&&t.length?"function"!=typeof n?null:("function"!=typeof e&&(e=null),function(r){var i=Z(r,t,n);return null!=i&&e&&(i=e(i)),i}):null}function W(t,n){return t.t-n.t}function X(t,n,r,i,u){var o,a="@"===r[0],l="#"===r[0],s=Y[r],f=T;switch(a?(o=r.substr(1),r=o.replace(U,Q)):l&&(r=r.substr(1)),e(s)){case"function":if(f=s(i,u,Z,J,r,a,n,t),l)return f;break;case"string":f=K(i,H(s));break;case"object":if((f=K(i,H(s.i),s.f))&&"function"==typeof s.u)return s.u(n,f,r,a,t)}return f?function(t,n,e){if(arguments.length>3&&void 0!==arguments[3]&&arguments[3])return t instanceof $?function(r){return t.style(n,e(r))}:function(r){return t.style[n]=e(r)};if(Array.isArray(n)){var r=n.length;return function(i){var u=e(i);if(null==u)for(var o=0;o<r;o++)t[o].removeAttribute(n);else for(var a=0;a<r;a++)t[a].setAttribute(n,u)}}return function(r){var i=e(r);null==i?t.removeAttribute(n):t.setAttribute(n,i)}}(n,r,f,a):null}function tt(t,n,r,i){if(!i||"object"!==e(i))return null;var u=null,o=null;return Array.isArray(i)?o=function(t){if(!t||!t.length)return null;for(var n=0;n<t.length;n++)t[n].e&&(t[n].e=J(t[n].e));return t.sort(W)}(i):(o=i.keys,u=i.data||null),o?X(t,n,r,o,u):null}function nt(t,n,e){if(!e)return null;var r=[];for(var i in e)if(e.hasOwnProperty(i)){var u=tt(t,n,i,e[i]);u&&r.push(u)}return r.length?r:null}function et(t,n){if(!n.settings.duration||n.settings.duration<0)return null;var e,r,i,u,o,a=function(t,n){if(!n)return null;var e=[];if(Array.isArray(n))for(var r=n.length,i=0;i<r;i++){var u=n[i];if(2===u.length){var o=null;if("string"==typeof u[0])o=t.getElementById(u[0]);else if(Array.isArray(u[0])){o=[];for(var a=0;a<u[0].length;a++)if("string"==typeof u[0][a]){var l=t.getElementById(u[0][a]);l&&o.push(l)}o=o.length?1===o.length?o[0]:new $(o):null}if(o){var s=nt(t,o,u[1]);s&&(e=e.concat(s))}}}else for(var f in n)if(n.hasOwnProperty(f)){var c=t.getElementById(f);if(c){var h=nt(t,c,n[f]);h&&(e=e.concat(h))}}return e.length?e:null}(t,n.elements);return a?(e=a,r=n.settings,i=r.duration,u=e.length,o=null,function(t,n){var a=r.iterations||1/0,l=(r.alternate&&a%2==0)^r.direction>0?i:0,s=t%i,f=1+(t-s)/i;n*=r.direction,r.alternate&&f%2==0&&(n=-n);var c=!1;if(f>a)s=l,c=!0,-1===r.fill&&(s=r.direction>0?0:i);else if(n<0&&(s=i-s),s===o)return!1;o=s;for(var h=0;h<u;h++)e[h](s);return c}):null}function rt(t,n){if(Y=n,!t||!t.root||!Array.isArray(t.animations))return null;var e=function(t){for(var n=document.getElementsByTagName("svg"),e=0;e<n.length;e++)if(n[e].id===t.root&&!n[e].svgatorAnimation)return n[e].svgatorAnimation=!0,n[e];return null}(t);if(!e)return null;var r=t.animations.map((function(t){return et(e,t)})).filter((function(t){return!!t}));return r.length?{svg:e,animations:r,animationSettings:t.animationSettings,options:t.options||void 0}:null}function it(t){var n=arguments.length>1&&void 0!==arguments[1]?arguments[1]:null,e=arguments.length>2&&void 0!==arguments[2]?arguments[2]:Number,r=arguments.length>3&&void 0!==arguments[3]?arguments[3]:"undefined"!=typeof BigInt&&BigInt,i="0x"+(t.replace(/[^0-9a-fA-F]+/g,"")||27);return n&&r&&e.isSafeInteger&&!e.isSafeInteger(+i)?e(r(i))%n+n:+i}function ut(t,n,e){return!t||!e||n>t.length?t:t.substring(0,n)+ut(t.substring(n+1),e,e)}function ot(t){var n=arguments.length>1&&void 0!==arguments[1]?arguments[1]:27;return!t||t%n?t%n:[0,1].includes(n)?n:ot(t/n,n)}function at(t,n,e){if(t&&t.length){var r=it(e),i=ot(r)+5,u=ut(t,ot(r,5),i);return u=u.replace(/\x7c$/g,"==").replace(/\x2f$/g,"="),u=function(t,n,e){var r=+("0x"+t.substring(0,4));t=t.substring(4);for(var i=it(n,r)%r+e%27,u=[],o=0;o<t.length;o+=2)if("|"!==t[o]){var a=+("0x"+t[o]+t[o+1])-i;u.push(a)}else{var l=+("0x"+t.substring(o+1,o+1+4))-i;o+=3,u.push(l)}return String.fromCharCode.apply(String,u)}(u=(u=atob(u)).replace(/[\x41-\x5A]/g,""),n,r),u=JSON.parse(u)}}var lt=[{key:"alternate",def:!1},{key:"fill",def:1},{key:"iterations",def:0},{key:"direction",def:1},{key:"speed",def:1},{key:"fps",def:100}],st=function(){function t(n,e){var i=this,u=arguments.length>2&&void 0!==arguments[2]?arguments[2]:null;r(this,t),this._id=0,this._running=!1,this._rollingBack=!1,this._animations=n,this._settings=e,(!u||u<"2022-05-02")&&delete this._settings.speed,lt.forEach((function(t){i._settings[t.key]=i._settings[t.key]||t.def})),this.duration=e.duration,this.offset=e.offset||0,this.rollbackStartOffset=0}return u(t,[{key:"alternate",get:function(){return this._settings.alternate}},{key:"fill",get:function(){return this._settings.fill}},{key:"iterations",get:function(){return this._settings.iterations}},{key:"direction",get:function(){return this._settings.direction}},{key:"speed",get:function(){return this._settings.speed}},{key:"fps",get:function(){return this._settings.fps}},{key:"maxFiniteDuration",get:function(){return this.iterations>0?this.iterations*this.duration:this.duration}},{key:"_apply",value:function(t){for(var n=arguments.length>1&&void 0!==arguments[1]?arguments[1]:{},e=this._animations,r=e.length,i=0,u=0;u<r;u++)n[u]?i++:(n[u]=e[u](t,1),n[u]&&i++);return i}},{key:"_rollback",value:function(t){var n=this,e=1/0,r=null;this.rollbackStartOffset=t,this._rollingBack=!0,this._running=!0;this._id=window.requestAnimationFrame((function i(u){if(n._rollingBack){null==r&&(r=u);var o=Math.round(t-(u-r)*n.speed);if(o>n.duration&&e!==1/0){var a=!!n.alternate&&o/n.duration%2>1,l=o%n.duration;o=(l+=a?n.duration:0)||n.duration}var s=(n.fps?1e3/n.fps:0)*n.speed,f=Math.max(0,o);f<=e-s&&(n.offset=f,e=f,n._apply(f));var c=n.iterations>0&&-1===n.fill&&o>=n.maxFiniteDuration;(o<=0||n.offset<o||c)&&n.stop(),n._id=window.requestAnimationFrame(i)}}))}},{key:"_start",value:function(){var t=this,n=arguments.length>0&&void 0!==arguments[0]?arguments[0]:0,e=-1/0,r=null,i={};this._running=!0;var u=function u(o){null==r&&(r=o);var a=Math.round((o-r)*t.speed+n),l=(t.fps?1e3/t.fps:0)*t.speed;if(a>=e+l&&!t._rollingBack&&(t.offset=a,e=a,t._apply(a,i)===t._animations.length))return void t.pause(!0);t._id=window.requestAnimationFrame(u)};this._id=window.requestAnimationFrame(u)}},{key:"_pause",value:function(){this._id&&window.cancelAnimationFrame(this._id),this._running=!1}},{key:"play",value:function(){if(!this._running)return this._rollingBack?this._rollback(this.offset):this._start(this.offset)}},{key:"stop",value:function(){this._pause(),this.offset=0,this.rollbackStartOffset=0,this._rollingBack=!1,this._apply(0)}},{key:"reachedToEnd",value:function(){return this.iterations>0&&this.offset>=this.iterations*this.duration}},{key:"restart",value:function(){var t=arguments.length>0&&void 0!==arguments[0]&&arguments[0];this.stop(t),this.play(t)}},{key:"pause",value:function(){this._pause()}},{key:"reverse",value:function(){this.direction=-this.direction}}],[{key:"build",value:function(t,n){delete t.animationSettings,t.options=at(t.options,t.root,"5c7f360c"),t.animations.map((function(n){n.settings=at(n.s,t.root,"5c7f360c"),delete n.s,t.animationSettings||(t.animationSettings=n.settings)}));var e=t.version;if(!(t=rt(t,n)))return null;var r=t.options||{},i=new this(t.animations,t.animationSettings,e);return{el:t.svg,options:r,player:i}}},{key:"push",value:function(t){return this.build(t)}},{key:"init",value:function(){var t=this,n=window.__SVGATOR_PLAYER__&&window.__SVGATOR_PLAYER__["5c7f360c"];Array.isArray(n)&&n.splice(0).forEach((function(n){return t.build(n)}))}}]),t}();function ft(t){return d(t)+""}function ct(t){var n=arguments.length>1&&void 0!==arguments[1]?arguments[1]:" ";return t&&t.length?t.map(ft).join(n):""}function ht(t){if(!t)return"transparent";if(null==t.a||t.a>=1){var n=function(t){return 1===(t=parseInt(t).toString(16)).length?"0"+t:t},e=function(t){return t.charAt(0)===t.charAt(1)},r=n(t.r),i=n(t.g),u=n(t.b);return e(r)&&e(i)&&e(u)&&(r=r.charAt(0),i=i.charAt(0),u=u.charAt(0)),"#"+r+i+u}return"rgba("+t.r+","+t.g+","+t.b+","+t.a+")"}function vt(t){return t?"url(#"+t+")":"none"}!function(){for(var t=0,n=["ms","moz","webkit","o"],e=0;e<n.length&&!window.requestAnimationFrame;++e)window.requestAnimationFrame=window[n[e]+"RequestAnimationFrame"],window.cancelAnimationFrame=window[n[e]+"CancelAnimationFrame"]||window[n[e]+"CancelRequestAnimationFrame"];window.requestAnimationFrame||(window.requestAnimationFrame=function(n){var e=Date.now(),r=Math.max(0,16-(e-t)),i=window.setTimeout((function(){n(e+r)}),r);return t=e+r,i},window.cancelAnimationFrame=window.clearTimeout)}();var yt={f:null,i:function(t,n,e){return 0===t?n:1===t?e:{x:q(t,n.x,e.x),y:q(t,n.y,e.y)}},u:function(t,n){return function(e){var r=n(e);t.setAttribute("rx",ft(r.x)),t.setAttribute("ry",ft(r.y))}}},gt={f:null,i:function(t,n,e){return 0===t?n:1===t?e:{width:q(t,n.width,e.width),height:q(t,n.height,e.height)}},u:function(t,n){return function(e){var r=n(e);t.setAttribute("width",ft(r.width)),t.setAttribute("height",ft(r.height))}}};Object.freeze({M:2,L:2,Z:0,H:1,V:1,C:6,Q:4,T:2,S:4,A:7});var dt={},pt=null;function mt(t){var n=function(){if(pt)return pt;if("object"!==("undefined"==typeof document?"undefined":e(document))||!document.createElementNS)return{};var t=document.createElementNS("http://www.w3.org/2000/svg","svg");return t&&t.style?(t.style.position="absolute",t.style.opacity="0.01",t.style.zIndex="-9999",t.style.left="-9999px",t.style.width="1px",t.style.height="1px",pt={svg:t}):{}}().svg;if(!n)return function(t){return null};var r=document.createElementNS(n.namespaceURI,"path");r.setAttributeNS(null,"d",t),r.setAttributeNS(null,"fill","none"),r.setAttributeNS(null,"stroke","none"),n.appendChild(r);var i=r.getTotalLength();return function(t){var n=r.getPointAtLength(i*t);return{x:n.x,y:n.y}}}function bt(t){return dt[t]?dt[t]:dt[t]=mt(t)}function wt(t,n,e,r){if(!t||!r)return!1;var i=["M",t.x,t.y];if(n&&e&&(i.push("C"),i.push(n.x),i.push(n.y),i.push(e.x),i.push(e.y)),n?!e:e){var u=n||e;i.push("Q"),i.push(u.x),i.push(u.y)}return n||e||i.push("L"),i.push(r.x),i.push(r.y),i.join(" ")}function At(t,n,e,r){var i=arguments.length>4&&void 0!==arguments[4]?arguments[4]:1,u=wt(t,n,e,r),o=bt(u);try{return o(i)}catch(t){return null}}function _t(t,n,e){return t+(n-t)*e}function xt(t,n,e){var r=arguments.length>3&&void 0!==arguments[3]&&arguments[3],i={x:_t(t.x,n.x,e),y:_t(t.y,n.y,e)};return r&&(i.a=kt(t,n)),i}function kt(t,n){return Math.atan2(n.y-t.y,n.x-t.x)}function St(t,n,e,r){var i=1-r;return i*i*t+2*i*r*n+r*r*e}function Ot(t,n,e,r){return 2*(1-r)*(n-t)+2*r*(e-n)}function jt(t,n,e,r){var i=arguments.length>4&&void 0!==arguments[4]&&arguments[4],u=At(t,n,null,e,r);return u||(u={x:St(t.x,n.x,e.x,r),y:St(t.y,n.y,e.y,r)}),i&&(u.a=Et(t,n,e,r)),u}function Et(t,n,e,r){return Math.atan2(Ot(t.y,n.y,e.y,r),Ot(t.x,n.x,e.x,r))}function Mt(t,n,e,r,i){var u=i*i;return i*u*(r-t+3*(n-e))+3*u*(t+e-2*n)+3*i*(n-t)+t}function Pt(t,n,e,r,i){var u=1-i;return 3*(u*u*(n-t)+2*u*i*(e-n)+i*i*(r-e))}function It(t,n,e,r,i){var u=arguments.length>5&&void 0!==arguments[5]&&arguments[5],o=At(t,n,e,r,i);return o||(o={x:Mt(t.x,n.x,e.x,r.x,i),y:Mt(t.y,n.y,e.y,r.y,i)}),u&&(o.a=Rt(t,n,e,r,i)),o}function Rt(t,n,e,r,i){return Math.atan2(Pt(t.y,n.y,e.y,r.y,i),Pt(t.x,n.x,e.x,r.x,i))}function Ft(t,n,e){var r=arguments.length>3&&void 0!==arguments[3]&&arguments[3];if(Tt(n)){if(Bt(e))return jt(n,e.start,e,t,r)}else if(Tt(e)){if(qt(n))return jt(n,n.end,e,t,r)}else{if(qt(n))return Bt(e)?It(n,n.end,e.start,e,t,r):jt(n,n.end,e,t,r);if(Bt(e))return jt(n,e.start,e,t,r)}return xt(n,e,t,r)}function Nt(t,n,e){var r=Ft(t,n,e,!0);return r.a=function(t){return arguments.length>1&&void 0!==arguments[1]&&arguments[1]?t+Math.PI:t}(r.a)/m,r}function Tt(t){return!t.type||"corner"===t.type}function Bt(t){return null!=t.start&&!Tt(t)}function qt(t){return null!=t.end&&!Tt(t)}var Dt=new N;var Lt={f:ft,i:B},Ct={f:ft,i:D};function Vt(t,n,e){return t.map((function(t){return function(t,n,e){var r=t.v;if(!r||"g"!==r.t||r.s||!r.v||!r.r)return t;var i=e.getElementById(r.r),u=i&&i.querySelectorAll("stop")||[];return r.s=r.v.map((function(t,n){var e=u[n]&&u[n].getAttribute("offset");return{c:t,o:e=d(parseInt(e)/100)}})),delete r.v,t}(t,0,e)}))}var Gt={gt:"gradientTransform",c:{x:"cx",y:"cy"},rd:"r",f:{x:"x1",y:"y1"},to:{x:"x2",y:"y2"}};function zt(t,n,r,i,u,o,a,l){return Vt(t,0,l),n=function(t,n,e){for(var r,i,u,o=t.length-1,a={},l=0;l<=o;l++)(r=t[l]).e&&(r.e=n(r.e)),r.v&&"g"===(i=r.v).t&&i.r&&(u=e.getElementById(i.r))&&(a[i.r]={e:u,s:u.querySelectorAll("stop")});return a}(t,i,l),function(i){var u=r(i,t,Yt);if(!u)return"none";if("c"===u.t)return ht(u.v);if("g"===u.t){if(!n[u.r])return vt(u.r);var o=n[u.r];return function(t,n){for(var e=t.s,r=e.length;r<n.length;r++){var i=e[e.length-1].cloneNode();i.id=Qt(i.id),t.e.appendChild(i),e=t.s=t.e.querySelectorAll("stop")}for(var u=0,o=e.length,a=n.length-1;u<o;u++)e[u].setAttribute("stop-color",ht(n[Math.min(u,a)].c)),e[u].setAttribute("offset",n[Math.min(u,a)].o)}(o,u.s),Object.keys(Gt).forEach((function(t){if(void 0!==u[t])if("object"!==e(Gt[t])){var n,r="gt"===t?(n=u[t],Array.isArray(n)?"matrix("+n.join(" ")+")":""):u[t],i=Gt[t];o.e.setAttribute(i,r)}else Object.keys(Gt[t]).forEach((function(n){if(void 0!==u[t][n]){var e=u[t][n],r=Gt[t][n];o.e.setAttribute(r,e)}}))})),vt(u.r)}return"none"}}function Yt(t,e,r){if(0===t)return e;if(1===t)return r;if(e&&r){var i=e.t;if(i===r.t)switch(e.t){case"c":return{t:i,v:V(t,e.v,r.v)};case"g":if(e.r===r.r){var u={t:i,s:$t(t,e.s,r.s),r:e.r};return e.gt&&r.gt&&(u.gt=function(t,n,e){var r=n.length;if(r!==e.length)return T(t,n,e);for(var i=new Array(r),u=0;u<r;u++)i[u]=B(t,n[u],e[u]);return i}(t,e.gt,r.gt)),e.c?(u.c=L(t,e.c,r.c),u.rd=q(t,e.rd,r.rd)):e.f&&(u.f=L(t,e.f,r.f),u.to=L(t,e.to,r.to)),u}}if("c"===e.t&&"g"===r.t||"c"===r.t&&"g"===e.t){var o="c"===e.t?e:r,a="g"===e.t?n({},e):n({},r),l=a.s.map((function(t){return{c:o.v,o:t.o}}));return a.s="c"===e.t?$t(t,l,a.s):$t(t,a.s,l),a}}return T(t,e,r)}function $t(t,n,e){if(n.length===e.length)return n.map((function(n,r){return Ut(t,n,e[r])}));for(var r=Math.max(n.length,e.length),i=[],u=0;u<r;u++){var o=Ut(t,n[Math.min(u,n.length-1)],e[Math.min(u,e.length-1)]);i.push(o)}return i}function Ut(t,n,e){return{o:D(t,n.o,e.o||0),c:V(t,n.c,e.c||{})}}function Qt(t){return t.replace(/-fill-([0-9]+)$/,(function(t,n){return"-fill-"+(+n+1)}))}var Ht={fill:zt,"fill-opacity":Ct,stroke:zt,"stroke-opacity":Ct,"stroke-width":Lt,"stroke-dashoffset":{f:ft,i:B},"stroke-dasharray":{f:function(t){var n=arguments.length>1&&void 0!==arguments[1]?arguments[1]:" ";return t&&t.length>0&&(t=t.map((function(t){return d(t,4)}))),ct(t,n)},i:function(t,n,e){var r,i,u,o=n.length,a=e.length;if(o!==a)if(0===o)n=G(o=a,0);else if(0===a)a=o,e=G(o,0);else{var l=(u=(r=o)*(i=a)/function(t,n){for(var e;n;)e=n,n=t%n,t=e;return t||1}(r,i))<0?-u:u;n=z(n,Math.floor(l/o)),e=z(e,Math.floor(l/a)),o=a=l}for(var s=[],f=0;f<o;f++)s.push(d(q(t,n[f],e[f])));return s}},opacity:Ct,transform:function(t,n,r,i){if(!(t=function(t,n){if(!t||"object"!==e(t))return null;var r=!1;for(var i in t)t.hasOwnProperty(i)&&(t[i]&&t[i].length?(t[i].forEach((function(t){t.e&&(t.e=n(t.e))})),r=!0):delete t[i]);return r?t:null}(t,i)))return null;var u=function(e,i,u){var o=arguments.length>3&&void 0!==arguments[3]?arguments[3]:null;return t[e]?r(i,t[e],u):n&&n[e]?n[e]:o};return n&&n.a&&t.o?function(n){var e=r(n,t.o,Nt);return Dt.recomposeSelf(e,u("r",n,B,0)+e.a,u("k",n,L),u("s",n,L),u("t",n,L)).toString()}:function(t){return Dt.recomposeSelf(u("o",t,Ft,null),u("r",t,B,0),u("k",t,L),u("s",t,L),u("t",t,L)).toString()}},r:Lt,"#size":gt,"#radius":yt,_:function(t,n){if(Array.isArray(t))for(var e=0;e<t.length;e++)this[t[e]]=n;else this[t]=n}},Jt=function(t){!function(t,n){if("function"!=typeof n&&null!==n)throw new TypeError("Super expression must either be null or a function");t.prototype=Object.create(n&&n.prototype,{constructor:{value:t,writable:!0,configurable:!0}}),n&&l(t,n)}(o,t);var n,e,i=(n=o,e=s(),function(){var t,r=a(n);if(e){var i=a(this).constructor;t=Reflect.construct(r,arguments,i)}else t=r.apply(this,arguments);return c(this,t)});function o(){return r(this,o),i.apply(this,arguments)}return u(o,null,[{key:"build",value:function(t){var n=h(a(o),"build",this).call(this,t,Ht);if(!n)return null;n.el,n.options,function(t,n,e){t.play()}(n.player)}}]),o}(st);return Jt.init(),Jt}));
(function(s,i,o,w,d,a,b){w[o]=w[o]||{};w[o][s]=w[o][s]||[];w[o][s].push(i);})('5c7f360c',{"root":"eU19p4HavSX1","version":"2022-05-04","animations":[{"elements":{"eU19p4HavSX2":{"transform":{"data":{"o":{"x":71.421875,"y":251.337891,"type":"corner"},"t":{"x":-71.421875,"y":-251.337891}},"keys":{"s":[{"t":0,"v":{"x":0.5,"y":0.5}},{"t":200,"v":{"x":1.2,"y":1.2}},{"t":400,"v":{"x":1,"y":1}}]}}},"eU19p4HavSX11":{"transform":{"data":{"o":{"x":117.833984,"y":251.337891,"type":"corner"},"t":{"x":-117.833984,"y":-251.337891}},"keys":{"s":[{"t":200,"v":{"x":0.5,"y":0.5}},{"t":400,"v":{"x":1.2,"y":1.2}},{"t":600,"v":{"x":1,"y":1}}]}}},"eU19p4HavSX20":{"transform":{"data":{"o":{"x":164.396484,"y":251.337891,"type":"corner"},"t":{"x":-164.396484,"y":-251.337891}},"keys":{"s":[{"t":400,"v":{"x":0.5,"y":0.5}},{"t":600,"v":{"x":1.2,"y":1.2}},{"t":800,"v":{"x":1,"y":1}}]}}},"eU19p4HavSX29":{"transform":{"data":{"o":{"x":210.958984,"y":251.337891,"type":"corner"},"t":{"x":-210.958984,"y":-251.337891}},"keys":{"s":[{"t":600,"v":{"x":0.5,"y":0.5}},{"t":800,"v":{"x":1.2,"y":1.2}},{"t":1000,"v":{"x":1,"y":1}}]}}},"eU19p4HavSX38":{"transform":{"data":{"o":{"x":257.517578,"y":251.337891,"type":"corner"},"t":{"x":-257.517578,"y":-251.337891}},"keys":{"s":[{"t":800,"v":{"x":0.5,"y":0.5}},{"t":1000,"v":{"x":1.2,"y":1.2}},{"t":1200,"v":{"x":1,"y":1}}]}}},"eU19p4HavSX47":{"transform":{"data":{"o":{"x":303.578125,"y":251.337891,"type":"corner"},"t":{"x":-303.578125,"y":-251.337891}},"keys":{"s":[{"t":1200,"v":{"x":0.5,"y":0.5}},{"t":1400,"v":{"x":1.2,"y":1.2}},{"t":1600,"v":{"x":1,"y":1}}]}}},"eU19p4HavSX191":{"transform":{"data":{"o":{"x":274.251953,"y":300.240234,"type":"corner"},"t":{"x":-274.251953,"y":-300.240234}},"keys":{"s":[{"t":0,"v":{"x":0.5,"y":0.5}},{"t":200,"v":{"x":1.2,"y":1.2}},{"t":400,"v":{"x":1,"y":1}},{"t":700,"v":{"x":0.5,"y":0.5}},{"t":900,"v":{"x":1.2,"y":1.2}},{"t":1100,"v":{"x":1,"y":1}},{"t":1400,"v":{"x":0.5,"y":0.5}},{"t":1600,"v":{"x":1.2,"y":1.2}},{"t":1800,"v":{"x":1,"y":1}},{"t":2100,"v":{"x":0.5,"y":0.5}},{"t":2300,"v":{"x":1.2,"y":1.2}},{"t":2500,"v":{"x":1,"y":1}},{"t":2800,"v":{"x":0.5,"y":0.5}},{"t":3000,"v":{"x":1.2,"y":1.2}},{"t":3200,"v":{"x":1,"y":1}},{"t":3500,"v":{"x":0.5,"y":0.5}},{"t":3700,"v":{"x":1.2,"y":1.2}},{"t":3900,"v":{"x":1,"y":1}}]}}}},"s":"MCDA1ZGUxODhjYWRiZDIhjN2RhR2NmZDVkNDgX4YTA5YTk3OTZKOTY5FMjg4Y2FjZmQ4Y2JjOGWRhY2ZkNWQ0ODhhMDHk3OTI4OGNmQWRhY2JBkOGM3ZGFjZklkNWQ0FZDk4OGEwOTY5MkY4OEGNjTWNmZDJkMjg4YTGBPOTc5Mjg4YzdkMmRYhY2JkOGQ0YzdkYWNiUODhhMFJjY2M3ZDJkOFVVjYjkyODhPZDlkNmANiY2JjYTg4TGEwOTcA5Mjg4Y2NkNmQ5ODhhBMDk3OTY5NmUz"}],"options":"MEDAxMDg4MmY4MDgxNmAU3ZjgxMmY0NzJmNzkK3YzZlQjcxMmY4YQ|"},'__SVGATOR_PLAYER__',window,document)
]]></script>
</svg>
